<svg xmlns="http://www.w3.org/2000/svg" width="460.999" height="378.958" viewBox="0 0 460.999 378.958">
  <g id="img" transform="translate(0.499 -1.13)">
    <path id="path_8644" data-name="path_8644" d="M490.139,393.443l-5.788,2.481-4.872,7.088a.292.292,0,0,1-.166.116l-6.651,1.775-.061.048c-.663.523-6.53,5.135-8.453,5.99-1.638.728-8.444.64-12.207.472l-.133-.039a23.85,23.85,0,0,0-4.92-2.288l-1.074-.265.685.87a30.81,30.81,0,0,0,4.732,4.1.289.289,0,0,1,.119.233l-1.571,9c-.249,1.371-1.455,2.774-2.518,4.012-1.011,1.178-1.726,2.055-1.726,2.642,0,.61.777,1.855,1.792,3.418,1.22,1.88,2.019,3.177,2.019,4.05l-.012.177c-.116.817-1.085,2.519-2.44,4.836a21.156,21.156,0,0,0-2.034,3.893,5.52,5.52,0,0,1-1.417,2.132c-1.011,1.168-2.157,2.488-2.157,3.859,0,1.169-.245,3.21-.482,5.184-.21,1.742-.443,3.683-.443,4.614l.028.44c.224,1.346.669,7.348.674,7.408a.3.3,0,0,1-.182.292c-.013.005-1.662.67-1.662,1.795l.046.317.41,1.232a13.165,13.165,0,0,1,.971,4.287l-.031.626a11.053,11.053,0,0,1-1.382,4.818c-.613,1.022-.845,2.005-1.078,4.573-.172,1.9-.537,2.044-1.567,2.193l-1.276.283c-1.995.662-11.7.1-12.252-1.276l-.089-.527a10.712,10.712,0,0,1,1.583-4.06l.364-.684-.149-.194a1.533,1.533,0,0,0-1-.482,1.944,1.944,0,0,0-1.789.661c-.424.493-1.322,1.653-2.671,3.446l-.2.264L431.555,499.7l9.9,8.771,6.746-9.446,4.909-6.248,3.306,1.133-.031,2.794v.334l5.216.68,1.8-3.832,4.016-1.323,2.472-.674.449-6.07,5.134-6.238,5.319-1.319c.028-.008,2.549-.848,2.549-.848l.184-.062,1.357-4.3-2.032-2.031,2.257-1.734,2.65-1.325c0,.009.838.177.838.177l.285.056,1.8-3.609,3.122-3.119,1.794-.895,1.129-3.162-1.356-4.982-.883-7.549,2.232-4.9c0,.014,3.935-1.077,3.935-1.077l.071-.02,3.854-2.942,3.3-1.756s7.294-1.545,7.294-1.545l.084-.018,3.784-2.893-.383-.335-.732-.647c-1.284-1.468-2.121-3.647-3.089-6.171l-.763-1.961a12.4,12.4,0,0,0-4.371-5.244l-1.377-1.144c-1.15-1.023-1.28-2.6-1.395-3.993a4.693,4.693,0,0,0-.845-2.945,10.928,10.928,0,0,1-1.6-2.451c-.891-1.647-1.9-3.513-3.669-4.193-2.7-1.038-8.5-5.537-10.282-7.147l-.181-.164Z" transform="translate(-291.661 -332.476)" fill="#cce7ff" stroke="#fff" stroke-width="1"/>
    <path id="path_8645" data-name="path_8645" d="M397.786,574.437l-4.957,6.726c-.584.819-.713,3.063-.8,5.486a7.667,7.667,0,0,1-.309,2.782c-.282.423-2.623,1.248-10.018,3.53l-3.31,1.051a24.049,24.049,0,0,0-2.725,1.489l-.47.286.434.339c5.981,4.662,11.766,9.521,18.169,14.932,11.735,9.917,23.863,20.167,37.169,28.269,3.167,1.928,5.343,1.592,8.1,1.168a22.239,22.239,0,0,1,4.529-.366,32.985,32.985,0,0,1,13.095,3.111,20.221,20.221,0,0,1,5.825,4.748,29.664,29.664,0,0,0,3.389,3.224l.948.7.232-.095,4.354-1.339,5.055-1.685,2.357-3.7,2.891-2.246.133-.1.337-4.717,3.034-3.016c-.028.025,3.142-2.509,3.142-2.509l.207-.166-.691-2.078-1-4.656c0,.016.655-4.891.655-4.891l.019-.143L486.2,618.5l-3.393,3.053c0-.017-3.613-.673-3.613-.673l-.044-.008-13.429.671-8.057,2.35-9.694-5.028c.038,0,1.647-5.474,1.647-5.474l.059-.2-2.379-2.72-.125-.026c-11.305-2.391-26.66-15.042-26.813-15.169l-9.855-8.735-12.453-12.453Z" transform="translate(-270.545 -419.375)" fill="#cce7ff" stroke="#fff" stroke-width="1"/>
    <path id="path_8646" data-name="path_8646" d="M802.177,290.451l-3.02,1.207h0l-.133.02a5.221,5.221,0,0,0-4.221,1.905c-1.807,2.257-3.76,2.211-4.633,1.629-.8-.482-6.309-1.7-7.51-.9a17.516,17.516,0,0,0-2.649,3.559c-1.416,2.162-2.637,4.028-3.459,4.3l-1.706.417c-1.909.416-3.673.844-4.2,1.5l-.156.147.006.243.55,2.569-1.119,8.93c0-.006-2.653,6.849-2.653,6.849l-.033.084.672,6.951,2.465,4.929c0,.047.439,5.75.439,5.75l0,.053,3.132,8.282c0-.013.442,7.541.442,7.541l0,.056,1.566,4.256c0-.026-.882,3.714-.882,3.714l-.016.07s.637,4.458.66,4.621l-2.16-1.08h0c0-.009-3.291-4.534-3.291-4.534l-.307-.423-3.618,4.975-2.932,8.329-2.9,5.34,9.639,10.759.439,2.005,10.982,10.758,6.233,0c.053,0,4.493-.638,4.493-.638l.292-.042.227-2.048,16.968-5.777,2.881.671a.18.18,0,0,0,0,.031c0,.267.175,2.2.175,2.2l.02.211,2.733,1.367,2.26-2.034,3.343-1.558,4-.441,3.83-.6-.176-.442a8.145,8.145,0,0,1-.356-2.8l.017-.1c.3-.852,1.053-3.245.883-4.1-.157-.788.81-1.606,2.034-2.643a11.618,11.618,0,0,0,2.254-2.264A67.426,67.426,0,0,0,836.8,377.6l.045-.075c.584-.7,1.956-2.73,1.324-3.679l-.844-1.191c-.9-1.233-1.441-2.018-1.441-2.548,0-.329.267-.649.6-1.055.664-.8,1.128-1.457.58-2.114-1-1.2-8.559-5.254-10.252-5.042a38.016,38.016,0,0,1-7.672.448,2.633,2.633,0,0,1-1.747-1.171,9.213,9.213,0,0,1-1.5-5.026l.089-1.077a13.108,13.108,0,0,1,.659-2.247,5.492,5.492,0,0,0,.443-1.69,1.454,1.454,0,0,0-.37-.968c-.642-.771-1.074-3-1.074-5.533a11.667,11.667,0,0,1,.585-4.164,7.383,7.383,0,0,1,1.467-1.924c.886-.936,1.723-1.819,1.723-3.054a3.194,3.194,0,0,0-.285-1.276,3.525,3.525,0,0,1-.291-1.413,7.688,7.688,0,0,1,.6-2.538,9.2,9.2,0,0,0,.712-3.2,7.418,7.418,0,0,0-1.006-3.559l-1.194-2.09c-1.227-2.087-2.194-3.733-2.194-5.682,0-1.886.942-3.994,2.965-6.633l.1-.085a3.569,3.569,0,0,0,1.53-3.3l-.121-1.3c-.543-3.074-3.431-3.5-4.82-3.7l-.584-.1-7.8-2.008a.291.291,0,0,1-.212-.228c-.168-.879-.725-3.729-1.108-4.882-.364-1.088-2.89-2.812-3.176-3.006l-.168-.112Z" transform="translate(-455.816 -282.967)" fill="#cce7ff" stroke="#fff" stroke-width="1"/>
    <path id="path_8647" data-name="path_8647" d="M696.984,279.283l-.06.02-.051.038a15.373,15.373,0,0,0-3.259,4.124c-.221.554-.893.682-1.973.827-1.311.175-2.8.374-3.158,1.82l-.5,2.6c-.3,1.812-.551,3.369-1.389,4.039a1.017,1.017,0,0,0-.325.841,10.765,10.765,0,0,0,.667,2.727l.656,2.19.228,2.72a.3.3,0,0,1-.076.215l-.192.12-.034.25.416,7.063,4.268,2.7c0,.038,1.293,4.348,1.293,4.348l.034.114,3.365,2.691.655,5.338c-.013-.013-2.323,2.086-2.323,2.086l-.14.128.451,4.955,1.573,2.022c-.027-.043-3.188,1.642-3.188,1.642l-.172.092-1.346,10.1,1.8,5.175,5.421,1.584,6,2.446,6.918,6.7s3.731,6.147,3.731,6.147l.073.12,3.37,1.124v0c0,.124.841,4.753.841,4.753l.027.148,4.3,3.171L727.8,371.1l2.932-8.329s3.568-4.9,3.571-4.907c0,.1,3.459,4.852,3.459,4.852l.054.075,2.322,1.161-.683-4.781c0,.01.87-3.687.87-3.687l.026-.111-1.569-4.262c0,.012-.443-7.542-.443-7.542l0-.058-3.132-8.279c0-.021-.439-5.737-.439-5.737l-.006-.075-2.464-4.927-.666-6.918c0,.011,2.666-6.874,2.666-6.874l.018-.044,1.12-8.959-.585-2.727-.4-.039c-.664-.192-1.353-3.2-1.992-8.685l-.028-.233-.22-.08c-.569-.208-1.792-.378-3.6.826-.285.192-1.15.771-1.8.444s-.683-1.26-.725-2.165a3.351,3.351,0,0,0-.133-1.068c0-.009-.43-.332-.43-.332-.547-.154-2.007-.066-5.644,2.23-2.718,1.717-4.874,1.2-6.2.47-3.042-1.676-4.581-5.915-4.724-9.142l-.013-.3-.3-.056a3.944,3.944,0,0,0-2.853.533c-1.919,1.2-4.674-.385-4.791-.453C700.005,280.288,697.687,279.055,696.984,279.283Z" transform="translate(-420.112 -277.62)" fill="#cce7ff" stroke="#fff" stroke-width="1"/>
    <path id="path_8648" data-name="path_8648" d="M659.022,322.176h-3.837l-.111.107a6.674,6.674,0,0,1-2.394,1.674,7.071,7.071,0,0,1-3.2-.568l-.18-.061-.157.106c-.26.177-6.385,4.348-6.989,6.363a5.637,5.637,0,0,0-.238,1.652,11.362,11.362,0,0,0,.251,2.1,9.7,9.7,0,0,1,.221,1.754,4.165,4.165,0,0,0,.429,1.521,7.562,7.562,0,0,1,.714,3.07,8.145,8.145,0,0,1-.258,1.966,34.842,34.842,0,0,0-.886,7.309.292.292,0,0,1-.165.262l-5.1,2.438-.047.05a15.855,15.855,0,0,0-3.207,4.73c-.486,1.338-1.95,2.374-3.366,3.377-1.268.9-2.466,1.747-2.661,2.625a10.371,10.371,0,0,0-.251,2.243,7.614,7.614,0,0,0,1.324,4.46l.323.463a30.5,30.5,0,0,0,4.777,5.75c.872.785,1.243,1.3,1.243,1.73-.024.437-.31.666-.712.949l-.723.625a4.134,4.134,0,0,0-.551,2.508,28.045,28.045,0,0,0,.386,3.968c0,.008.095,1.142.095,1.142a3.69,3.69,0,0,1-1.046,2.723l-.479.639,8.512,6.331,2.479-.45s-.007.031-.007.088c0,.489.168,2.841.168,2.841l.013.183,4.3,2.946s6.136,5.483,6.136,5.483l.1.089,4.04.224c-.049,0-.689,4.06-.689,4.06l-.025.156,4.944,6.743h2.706c0,.027,1.418,1.85,1.418,1.85l.128.164,2.484-.226h0c0,.013,4.61,3.306,4.61,3.306l.064.046,3.157.677,3.144-1.573,3.325.675c-.043,0-.592,3.849-.592,3.849l-.129.9,9.707-7.225,5.147-6.49c0,.021,3.558.441,3.558.441l.231.026,1.358-2.036c-.006.008,4.063-2.99,4.063-2.99l.2-.147-.457-2.054L696.7,397l-4.253-3.135c0-.066-.842-4.7-.842-4.7l-.04-.222-3.379-1.126h0c0-.021-3.755-6.2-3.755-6.2l-.025-.042-6.945-6.721-6.013-2.452-5.4-1.578-1.76-5.115,1.344-10.043c.009.017,2.981-1.568,2.981-1.568l.4-.213-1.6-2.055-.438-4.9c.011.013,2.318-2.083,2.318-2.083l.145-.132-.676-5.408-3.368-2.7c0-.029-1.291-4.331-1.291-4.331l-.041-.136-4.264-2.693v-.01c0-.294-.388-6.908-.388-6.908l-.022-.358Z" transform="translate(-391.9 -298.257)" fill="#cce7ff" stroke="#fff" stroke-width="1"/>
    <path id="path_8649" data-name="path_8649" d="M588.574,463.383l-3.628,2.774-7.376,1.565-3.314,1.762-3.855,2.941s-3.859,1.068-3.859,1.068l-.171.048-2.25,4.949.886,7.568,1.353,4.976-1.12,3.113.007.083c.014.163.351,3.987,1.017,4.488a21.65,21.65,0,0,1,2.506,3.343c-.024,0-1.467,2.887-1.467,2.887l-.051.1.509,4.577,2.887.339,3.67,2.508.316,3.155c-.008-.008-1.914,2.692-1.914,2.692l-.1.145.677,2.537c-.011-.008-1.051,1.626-1.051,1.626l-.133.209,1.358,2.037.665,2.5c-.017-.02-1.536,1.195-1.536,1.195l-.143.115v4.886l-.669,2.673c-.007-.009-2.087,1.477-2.087,1.477l-.277.2,2.334,4.18,10.636,13.017,1.884-2.226,4.884-1.337,5.824-.829,12.7,1.514,8.589-.842,8.443-1.01s12.591.335,12.591.335l.116,0,3.7-2.356s3.518-.455,3.518-.455l.365-.047-.958-9.916-4.279-1.126s-4.3-3.443-4.3-3.443l-.18-.144-6.064,2.694-2.18-3.783c0-.041-.427-4.536-.427-4.536l-.015-.161-4.488-3.591s-3.447-4.528-3.447-4.528l-.139-.182-6.767,1.12-5.776-.222h0c0-.023-3.065-3.744-3.065-3.744l-.038-.047-6.716-4.253-2.673-3.122,2.666-1.27,5.572-2.888,2.738-2.281-.9-3.383.115-3.5.111-3.429-2.031-4.063-2.012-5.156h0c0-.015-1.312-5.483-1.312-5.483l-.017-.068-2.465-3.584v0c0-.14-.2-4.424-.2-4.424l-.013-.279-4.281-1.126.437-3.786.048-.458-.459.039a5.045,5.045,0,0,1-2.523-.4l-.209-.1Z" transform="translate(-361.383 -366.083)" fill="#cce7ff" stroke="#fff" stroke-width="1"/>
    <path id="path_8650" data-name="path_8650" d="M626.839,452.7a5.074,5.074,0,0,1-1.188.846h0a4.321,4.321,0,0,0-1.959,1.757c-.55,1.285-2.656,1.956-4.194,2.445l-1.042.365a4.335,4.335,0,0,1-1.06.342l-.274.055-.455,4.317,4.287,1.127a.432.432,0,0,0,0,.059c0,.532.188,4.5.188,4.5l.005.107,2.468,3.59,1.321,5.532,2.017,5.165,2.027,4.057c-.006,0-.228,6.862-.228,6.862l0,.057.9,3.361-2.7,2.2-5.562,2.891-2.729,1.365,2.725,3.18,6.715,4.253s3.025,3.676,3.025,3.676l.108.132,5.806.231,6.747-1.126h0c0,.039,3.51,4.646,3.51,4.646l.028.037,4.477,3.582v0c0,.137.423,4.589.423,4.589l.008.084,2.263,3.845,6.075-2.7h0c0,.03,4.371,3.527,4.371,3.527l.063.05,4.28,1.127,5.612-4.041,8.485-10.046,2.7-3.828c0,.015,1.731-.177,1.731-.177l.284-.031,1.348-7.637,3.1-.86h0c0,.037,2.206,2.442,2.206,2.442l.238.26,3.169-2.491,2.464-4.033c0,.024,4.384.243,4.384.243l.057,0,5.393-1.348,2.468-4.489,4.508-2.239,6.53-1.942-.522-7.5,0-2.709-4.8.681-6.208,0-10.956-10.749-4.285,3.159-1.347,2.019c0-.025-3.574-.445-3.574-.445l-.211-.025-5.16,6.507-9.523,7.084c.073-.506.663-4.632.663-4.632l-3.412-.683-3.144,1.573-3.1-.675s-4.579-3.276-4.579-3.276l-.115-.081-2.477.225h0c0-.033-1.426-1.866-1.426-1.866l-.114-.146h-2.706l-4.884-6.69c.013,0,.621-3.849.621-3.849l.066-.416-4.075-.227-6.2-5.554-4.288-2.937a.044.044,0,0,0,0-.013c0-.2-.179-2.711-.179-2.711l-.03-.423-2.509.456-8.424-6.281Z" transform="translate(-386.647 -360.891)" fill="#cce7ff" stroke="#fff" stroke-width="1"/>
    <path id="path_8651" data-name="path_8651" d="M656.475,626.118l-3.5.456-3.7,2.354-12.673-.345-8.449,1.009-8.578.833-12.712-1.505-5.835.831c-.047.01-4.811,1.324-4.811,1.324l-.114.032-1.874,2.215,2.867,5.226-1.654.941-3.709,2.361-2.881,1.694,1.369,2.052c-.011,0-.67,4.943-.67,4.943l-.009.065.511,2.389,6.1-4.535L600,649.815h0l3.54,1.541.33.144,1.193-2.387,2.626,1.195h0c0,.006.982,1.128.982,1.128l.2.229,1.876-1.023c0,.015,2.713.812,2.713.812l.119.035,2.362-.844,2.778,2.659,5.614,3.408h0c0,.006,2.085,1.793,2.085,1.793l.244.208,2.88-2.373,4-.326,3.332,1.506h0c0,.078.789,3.551.789,3.551l.028.122,2.715,2.353.233-1.561.992-2.646,5-4.492c.021-.021,2.959-3.121,2.959-3.121l.093-.1.336-4.714,2.665-1.811,2.52.008,1.033-2.406,1.686-3.025s2.091-2.728,2.091-2.728l.068-.089.172-2.063-2.889-.68-.3-4h0c0-.006-.176-4.059-.176-4.059Z" transform="translate(-373.274 -444.368)" fill="#cce7ff" stroke="#fff" stroke-width="1"/>
    <path id="path_8652" data-name="path_8652" d="M578,669.151l-5.924,4.4.048.24.457,2.139.682,2.053-3.312,2.609c-.032.029-2.962,2.959-2.962,2.959l-.1.1-.337,4.713c-.008-.012-2.956,2.28-2.956,2.28l-.052.04-2.352,3.7-5.016,1.661-4.676,1.439.642.446a13.087,13.087,0,0,0,2.693,1.57c1.562.52,6.685,8.444,6.685,10.339,0,1.551.4,2.369,10.346,7.119a56.969,56.969,0,0,1,6.2,3.594c6.456,4.123,12.032,7.685,23.915,1.576,3.572-2.173,10.51-6.487,11.375-7.351a11.721,11.721,0,0,0,1.162-1.559,18.129,18.129,0,0,1,4.465-4.957c3.516-2.511,9.324-7.658,9.948-10.779a9.639,9.639,0,0,1,2.224-3.589l.271-.318-1.722-1.208-1.382-.864-2.036,1.187-2.8-2.677-1.5-2.84.469-3.074L619.8,681.8c0-.037-.788-3.5-.788-3.5l-.042-.185-3.385-1.523-4.052.338-2.863,2.357-2.246-1.979-5.607-3.414c-.057-.052-2.843-2.675-2.843-2.675l-2.374.848c0-.008-2.69-.8-2.69-.8l-.152-.045-1.86,1.015h0c0-.05-1.072-1.274-1.072-1.274l-.056-.064-2.733-1.2-1.193,2.387-3.776-1.69-3.717-1.294-.191-.065Z" transform="translate(-355.314 -465.027)" fill="#cce7ff" stroke="#fff" stroke-width="1"/>
    <path id="path_8653" data-name="path_8653" d="M515.726,522.9l-1.356.678-3.142,3.141-1.791,3.583c0-.032-.957-.223-.957-.223l-.128-.026-2.673,1.329-2.307,1.846,2.047,2.048-1.353,4.2-2.679.872-5.232,1.307-.122.031-5.162,6.285-.448,6.053-2.41.625L483.948,556l-1.8,3.819-5.1-.7.039-2.844v-.275l-3.415-1.138-4.93,6.274L462,570.586l.279.224c1.62,1.307,16.128,12.836,26.723,15.018l2.323,2.669c-.022,0-1.608,5.4-1.608,5.4l-.089.3,9.778,5.058,8.069-2.353,13.408-.67,3.518.641.184.034,3.371-3.034,2.835-1.666,3.71-2.36,1.392-.835.313-.188-2.837-5.186-10.64-13.023-2.31-4.136c.024.031,2.234-1.548,2.234-1.548l.114-.081.677-2.706V557.27c.01.011,1.488-1.171,1.488-1.171l.194-.155-.68-2.551-1.345-2.018c.03,0,1.095-1.674,1.095-1.674l.09-.141-.676-2.534c.012.01,1.934-2.711,1.934-2.711l.082-.117-.339-3.224-3.717-2.535-2.862-.336-.464-4.49c.006,0,1.418-2.82,1.418-2.82l.1-.2-.12-.183a21.783,21.783,0,0,0-2.42-3.207c-.294-.221-.7-1.546-.943-4.01l-.054-.551Z" transform="translate(-312.283 -394.645)" fill="#cce7ff" stroke="#fff" stroke-width="1"/>
    <path id="path_8654" data-name="path_8654" d="M724.123,622.2l-4.957.331-4.708,3.867-2.5.662-7.925-2.875.176,4.081c0,.016.339,4.073.339,4.073l2.884.678-.2,1.966-2.144,2.787-1.693,3.035-1.023,2.383L700,643.163h-.118l-2.713,1.865-.336,4.718-3.026,3.178-4.951,4.454-.068.062-1.007,2.662-.679,4.584,1.52,2.871,2.881,2.712,2.043-1.19,1.309.848,1.713,1.2.225-.252c3.755-4.211,10.325-9.311,12.678-10.192,1.347-.636,3.016-1.266,3.487-.72a.494.494,0,0,1,.128.342,1.552,1.552,0,0,1-.312.79c-.843,1.265-1.849,2.6-2.545,3.5l-.335.433,6.1,1.892c2.4.814,23.639,8.032,27.218,9.895l.355.184,16.269-35.48-1.54-1.541-4.013-1-8.749-1.517-5.184-3.348c.007,0-7.163-7.5-7.163-7.5l-.046-.049-8.909-4.371Z" transform="translate(-420.512 -442.508)" fill="#cce7ff" stroke="#fff" stroke-width="1"/>
    <path id="path_8655" data-name="path_8655" d="M862.08,494.168h0c-.982.735-3.97.747-4.74.491l-.335-.192-.2-.031-3.642.575-3.954.438-.062.007-3.367,1.572-2.242,2.017L840.9,497.7a.048.048,0,0,0,0-.015c0-.2-.179-2.167-.179-2.167l-.025-.274-2.952-.682-17.036,5.828-.224,2.024,0,2.682.67,9.624.9,6.955c-.009-.009-3.256,4.1-3.256,4.1l-.1.127,2.017,14.789,6.267,9.848c0,.051,1.082,11.517,1.082,11.517l.034.359,5.634-.225s7.29,2.655,7.29,2.655l.083.03,4.269-.45,5.823-3.583,3.913-.408-.571-.565a22.25,22.25,0,0,0-1.972-1.739.294.294,0,0,1-.118-.234l.025-.12c.147-.33,3.656-8.156,7.037-10.409,2.963-1.975,3.022-2.637,3.351-6.307l.1-1.084c.4-4.189,5.273-7.881,7.35-9.274l.152-.1.031-.35c0-1.336-1.377-6.109-2.529-7.261a.9.9,0,0,1-.3-.663c0-.826,1.1-1.948,2.16-3.031,1.248-1.274,2.657-2.713,2.757-3.916l.016-.385a5.378,5.378,0,0,0-.847-2.684,6.273,6.273,0,0,1-.96-3.17l.1-2.371s.151-3.816.151-3.816a11.66,11.66,0,0,0-.892-5.3c-.849-1.578-1.285-1.735-1.9-1.807a2.329,2.329,0,0,1-1.383-.568C865.615,494.237,862.844,493.594,862.08,494.168Z" transform="translate(-483.783 -380.848)" fill="#cce7ff" stroke="#fff" stroke-width="1"/>
    <path id="path_8656" data-name="path_8656" d="M772.173,529.8l-6.134,1.824-4.516,2.258-2.466,4.485-5.339,1.32c.013,0-4.261-.215-4.261-.215l-.225-.01-2.474,4.048-3.12,2.448h0c0-.059-2.261-2.525-2.261-2.525l-.159-.173-3.184.911s-1.347,7.627-1.347,7.63c0-.031-1.824.171-1.824.171l-.17.019-2.713,3.84L723.5,565.871l-5.6,4.033.955,9.9,7.923,2.866,2.539-.677,4.7-3.864,5.008-.326,8.866,4.357s7.172,7.509,7.172,7.509l.031.032,5.213,3.363,8.755,1.517,4.036,1.009,6.617-16.036L778.6,567.674l-6.268-9.849-2.006-14.743c.011.009,3.257-4.1,3.257-4.1l.1-.125-.9-6.972-.153-2.213Z" transform="translate(-435.319 -398.02)" fill="#cce7ff" stroke="#fff" stroke-width="1"/>
    <path id="path_8657" data-name="path_8657" d="M843.761,621.867l-3.667.387-5.823,3.584-4.23.441s-7.3-2.658-7.3-2.658l-.071-.027-5.63.226-6.62,16.045,1.531,1.531-16.265,35.4.252.183c1.917,1.394,8.6,5.6,9.354,6.079l.045.03.051.014c1.757.509,17.339,4.86,23.375.9,4.489-2.941,8.307-7.367,11.1-10.6a42.3,42.3,0,0,1,2.959-3.24c3.056-2.779,12.026-14.037,13.1-28.812a.7.7,0,0,0-.333-.6c-.289-.165-1.038-.307-2.825.586a64.85,64.85,0,0,0-6.232,3.562.292.292,0,0,1-.405-.089c-.11-.174-2.717-4.322-3.169-6.353l-.037-.393a22.878,22.878,0,0,1,1.269-5.107c.75-2.421,1.773-5.726,1.773-7.64a2.428,2.428,0,0,0-.282-1.3,14.542,14.542,0,0,0-1.6-2.031l-.13-.14Z" transform="translate(-472.722 -442.341)" fill="#cce7ff" stroke="#fff" stroke-width="1"/>
    <path id="path_8658" data-name="path_8658" d="M663.809,749.54l-3.711,5.083,0,0-2.75,3.763a30,30,0,0,1-9.977,7.914,14.781,14.781,0,0,0-2.135,1.292l-2.271,2.093a62.915,62.915,0,0,1-5.808,5.084c-1.418.946-6.779,1.237-13.035.709l-.626-.053,2.17,5.174,3.712,1.855,2.507,1.338-.359,2.807c-.007,0-2.423,2.735-2.423,2.735l-.092.1-.168,7.246-.837,11.208-.336,8.063-.506,1.169.675,5.058,3.506,4.677,2.543,2.715.323,5.225c-.005,0-.494,5.052-.494,5.052l-.01.1.889,1.956.355-.18c2.013-1.031,3.182-1.912,3.574-2.7.953-1.9,3.755-2.432,4.915-2.571l.263-.031.062-.258a12.34,12.34,0,0,0,.346-2.8,7.507,7.507,0,0,0-.239-1.963s-.01-.076-.01-.076a.292.292,0,0,1,.2-.277c.493-.162,4.877-1.57,6.707-.655,1.258.63,2.519,3.69,4.036,7.625.488,1.266.909,2.36,1.238,3.016.988,1.976,5.847,5.745,9.151,5.445l.1-.011,2.389-1.737a.29.29,0,0,1,.194-.054,20.575,20.575,0,0,0,3.638.017l.068-.013.058-.037c1.315-.833,9.119-10.7,9.119-12.426a1.051,1.051,0,0,1,.543-1.042c1.07-.534,3.429.925,4.171,1.48.644.483.928,2.487,1.258,4.809a33.728,33.728,0,0,0,.637,3.622l.034.122c.651,2.384,1.542,5.648-.31,7.964-.955,1.194-.285,1.859.886,2.848a4.727,4.727,0,0,1,1.39,1.552c.728,1.7.216,7.637-.215,8.929l-.382.939c-.728,1.694-1.457,3.577-.912,4.549a1.327,1.327,0,0,0,1.06.617c3.213.461,9.8,6.554,11.184,9.79,1.351,3.153,4.76,5.359,7.013,4.538,2.336-.847,8.081-2.293,10.926-1.344,1.958.652,2.282.491,3.9-.6l1.454-.945a5.75,5.75,0,0,1,2.43-.881c.016,0,.541-.1.541-.1l.016-.236.049-.6-.048-1.25c0-.02-.02-.654-.02-.654a5.026,5.026,0,0,1,2.076-4.53l.469-.408a1.106,1.106,0,0,0,.435-.806c0-.489-.391-1.091-1.546-2.391a2.584,2.584,0,0,1-.781-1.651l.028-.284c.192-1,1.339-1.566,2.261-2.024l.144-.072c.861-.43,3.075.241,6.109,1.238a20.831,20.831,0,0,0,2.516.738l.138.017.117-.077a14.64,14.64,0,0,0,2.19-2.711l.057-.063,2.683-2.236.088-.049,2.938-1.05,0-.27c-.011-1.317-.054-3.7-.219-4.853l-.016-.233c0-1.375,1.615-3.131,3.023-4.507l.2-.2a34.148,34.148,0,0,0,2.626-5.059.288.288,0,0,1,.278-.172l.7.029.343-3.264-.678-2.878-3.036-1.686c.024,0,.179-4.773.179-4.773l.013-.407-3.066-2.9-3.822-4.825c0-.009-1.592-5.1-1.592-5.1l-.089-.283-8.936.506-12.923,7.889-7.364-.007-4.9,1.519-2.989.663-1.122-3.158c.015.006,1.7-2.91,1.7-2.91l.157-.273-3.92-3.414-2.98-3.483-1.487-4.813c-.015-.039-2.761-6.337-2.761-6.337l-.12-.276-4.564.845-3.837-1.005-3.348-6.742-3.992-13.666-4.375-11.444-3.358-9.576c0-.005-2.489-9.462-2.489-9.462l-.02-.079-3.414-4.227Z" transform="translate(-389.932 -503.546)" fill="#cce7ff" stroke="#fff" stroke-width="1"/>
    <path id="path_8659" data-name="path_8659" d="M715.971,725.241h0c-5.025.862-10.507,7.373-14.193,12.2l-.181.237,3.387,4.195,2.5,9.518,3.36,9.581,4.374,11.441,3.994,13.67c.025.063,3.311,6.636,3.311,6.636l.077.155,3.887,1.014,4.539-.841,2.815,6.551h0c0,.007,1.475,4.758,1.475,4.758l.023.076,2.991,3.494,3.9,3.394c-.042,0-1.775,3-1.775,3l-.089.154,1.195,3.244,3.03-.672,4.894-1.519,7.38,0,12.926-7.89,8.869-.5v0c0,.109,1.613,5.274,1.613,5.274l.022.067,3.831,4.836,3.055,2.891c-.015,0-.057,1.3-.057,1.3L787,825.4l3.043,1.69.649,2.821-.345,3.247.408.014a41.755,41.755,0,0,0,4.673-.017c.625-.208,2.981-2.136,3.185-3.357a5.844,5.844,0,0,1,1.322-2.19c.743-.939,1.581-2,1.581-2.906a.765.765,0,0,1,.348-.679c.833-.525,2.955.3,6.338,1.913l1.087.505a7.644,7.644,0,0,1,2.046,1.837c1.116,1.223,2.1,2.231,2.822,2.2a.788.788,0,0,0,.614-.368,34.686,34.686,0,0,0,2.571-4.973c1.375-2.969,2.672-5.772,3.729-6.7l1.213-1-.118-.274-3.011-6.353-7.916-10.958c-.3-.394-2.575-5.044-4.406-8.781l-.042-.086c-1.524-3.108-2.458-5.01-2.579-5.2-.659-.7-11.137-6.653-11.583-6.906-.031-.016-13.581-6.2-13.581-6.2l-.043-.02-9.9-1.845-6.351-5.86-1.324-9.68-2.217-10.933-.294-.142c-4.173-3.091-12.387-9.12-13.615-9.822C743.755,733.493,723.633,723.927,715.971,725.241Z" transform="translate(-427.482 -491.994)" fill="#cce7ff" stroke="#fff" stroke-width="1"/>
    <path id="path_8660" data-name="path_8660" d="M405.525,852.453l-1.366,1.679a17.536,17.536,0,0,0-2.34,3.174s-.082.489-.082.489c0,2.653,5.068,14.935,7.428,18a12.44,12.44,0,0,0,3.122,2.827c.894.615,1.6,1.1,1.847,1.967l.067.491a4.779,4.779,0,0,1-.716,2.07,3.736,3.736,0,0,0-.527,1.355.506.506,0,0,0,.183.41,9.455,9.455,0,0,0,2.735.97c1.909.51,3.19.893,3.594,1.567a.7.7,0,0,1,.115.359c0,.569-.978,1.17-1.924,1.753-1.517.933-2.674,1.717-2.674,2.6l.04.27c.646,2.153,5.755,6.08,7.362,6.281a4.235,4.235,0,0,1,2.415,1.837,8.9,8.9,0,0,1,1.878,4.286l-.016.245-.395,1.406a6.376,6.376,0,0,0-.45,1.97,2.349,2.349,0,0,0,.762,1.743c1.37,1.371,2.831,4.7,4.243,7.91l1.4,3.125c1.437,3.054,5.2,3.7,6.324,3.829l.213.023.131-.17c.833-1.085,5.038-6.56,6.042-7.763.7-.843,3.12-1.229,6.466-1.032l.275.016.1-.256c.906-2.307,1.984-4.992,2.291-5.6.536-1.071,6.039-6.21,7.97-7.069l.535-.239-.388-.408-5.982-5.384c0-.015-1.248-3.289-1.248-3.289l-.094-.244h-4.056l-2.993-2.171-2.166-5.182.486-4.313.024-.217-3.209-2.364-3.845-6.862c.022.036,2.108-1.247,2.108-1.247l.065-.04,2.193-3.038.17-3.737-2.716-.849a.058.058,0,0,0,0-.015c0-.208-.268-2.617-.268-2.617l-.044-.4-4.228.677-7.623,1.519-11.168.159-1.777-3.453c-.032-.051-3.33-4.5-3.33-4.5l-.064-.088-6.72-2.687Z" transform="translate(-283.307 -553.108)" fill="#cce7ff" stroke="#fff" stroke-width="1"/>
    <path id="path_8661" data-name="path_8661" d="M486.639,830.424l-2.475,2.01-2.52,4.537-3.829.48-4.252.492-.117.012-4.036,3.532-4.209,1.341-3.822.83-.959-.139-.226-.032-6.459,8.837,7.675-1.534,4.177-.668s0,.012,0,.037c0,.335.265,2.723.265,2.723l.028.248,2.712.846c-.034,0-.2,3.645-.2,3.645l-2.172,3s-1.892,1.161-1.892,1.161l-.312.191,3.884,6.923,3.194,2.354c-.022,0-.511,4.4-.511,4.4l-.011.1,2.189,5.22,3.042,2.2h4.038c0,.077,1.272,3.416,1.272,3.416l.032.085,6.524,5.871.108.035.253.085c1.4.624,2.892,3.865,3.826,6.688l.032.1.078.068c.882.772,5.332,4.675,6.364,5.708a3.278,3.278,0,0,1,.557,2.295l-.13,3.147.107,1.1.33-.062a12.136,12.136,0,0,0,3.5-1.323l1.152-.531.5-.206a24.247,24.247,0,0,1,7.175-2.042l2.033-.111c6.519-.309,8.078-.779,8.411-1.391l.02-.036.012-.04c.193-.674.7-.812,1.444-.944,1.06-.187,2.512-.444,3.477-3.755,1.4-4.79,4.694-4.971,6.464-5.068l.754-.067c3.927-.65,7.679-3.984,11.149-9.914a39.244,39.244,0,0,1,3.445-3.45l1.324-.608c-.01.006,2.67-1.2,2.67-1.2l.349-.157-.169-.342-.73-1.606.507-5.123c0-.061-.327-5.14-.327-5.14l-.009-.135-2.55-2.725-3.5-4.665-.668-5.054-9.939,1.011-2.668-.671-9.541-9.549.015-11.728c0,.02.15-2.837.15-2.837l.02-.374-2.582-.173-1.693,1.862-3.175,1.835-2.316-.508s-4.691-3.238-4.691-3.238l-.18-.125-2.836,1.333-1.887,1.2c0-.014-4.087-1-4.087-1l-.082-.018-2.527.505-2.856-.17-4.678-.5h0c0-.01-2.95-2.5-2.95-2.5l-.241-.2Z" transform="translate(-308.308 -542.53)" fill="#cce7ff" stroke="#fff" stroke-width="1"/>
    <path id="path_8662" data-name="path_8662" d="M983.82,602.159a120.308,120.308,0,0,0-24.762,16.747h0a.29.29,0,0,1-.238.065c-.179-.032-18.064-2.937-28.122,10.4a63.275,63.275,0,0,0-9.6,18.239c-.751,2.016-1.526,4.1-2.482,6.2l-.12.265,6.852,5.682v.005c0,.173.32,4.514.32,4.514l-2.509,6.32L921.8,674.5l9.9,6.041,11.925,5.714,6.021,2.471.065-.49a10.945,10.945,0,0,1,.848-3.264,7.135,7.135,0,0,1,1.9-1.988c1.254-1.038,2.675-2.212,2.545-3.9-.216-2.813,2.522-5.969,3.994-7.664l.323-.373c.482-.563.343-1.243.15-2.185a6.229,6.229,0,0,1,.72-5.162,92.081,92.081,0,0,1,8.078-10.995c.105-.095,1.935-1.662,6.018-1.888l.707-.039c3.827-.207,9.606-.518,11.638-2.348,1.069-.961,2.114-.509,3.272.131.669.369.89.463,1.072.452l.123-.007.1-.079a2.719,2.719,0,0,0,.486-1.65l.089-1.919a27.011,27.011,0,0,0-1.638-8.911,4.415,4.415,0,0,1-.167-1.456l.074-2.019c0-.038.1-3.121.1-3.121,0-3.567-.562-6.071-1.768-7.881a29.1,29.1,0,0,1-4.744-14l-.052-1.114a12.693,12.693,0,0,1,.769-4.24l.283-.848Z" transform="translate(-531.769 -432.689)" fill="#cce7ff" stroke="#fff" stroke-width="1"/>
    <path id="path_8663" data-name="path_8663" d="M867.291,702.792a41.267,41.267,0,0,1-3.951,6.689h0c-1.952,2.7-3.474,5.1-4.945,7.414-4.148,6.538-7.421,11.7-16.615,17.045-8.807,5.124-16.32,2.834-22.358.993a36.166,36.166,0,0,0-6.56-1.576l-.513-.051,2.238,11.036c0-.018,1.321,9.585,1.321,9.585l.018.136,6.4,5.891,9.909,1.846,13.6,6.216c6.746,3.828,11.18,6.464,11.541,6.866.125.19,1.282,2.55,2.622,5.283,2.331,4.757,4.136,8.425,4.411,8.79,2.681,3.709,7.789,10.774,7.907,10.945l3.151,6.644.369-.255a5.655,5.655,0,0,1,4.07-1.1l1.322.164c2.587.346,4.961.572,5.554-.465.358-.628-.265-1.852-2.382-4.678a8.313,8.313,0,0,1-1.453-2.278,1.485,1.485,0,0,1,.426-1.266,5.4,5.4,0,0,1,4.357-1.317l.11.032,4.579,2.4.165-.068a18.921,18.921,0,0,0,5.651-3.619c2.487-2.487,6.672-7.585,7.759-10.628a8.312,8.312,0,0,1,3.34-4,7.106,7.106,0,0,0,1.617-1.441l1.014-1.265c1.269-1.513,3.016-3.6,3.182-5.746.111-1.449.434-3.5.745-5.481a44.752,44.752,0,0,0,.6-4.56,1.119,1.119,0,0,0-.541-.905,4.933,4.933,0,0,0-4-.384c-1.341.447-2.307-.62-3.241-1.649a5.618,5.618,0,0,0-2.086-1.705c-1.417-.472-3.708.291-5.379.848l-1.637.506a1.939,1.939,0,0,1-1.483-.325c-1.711-1.049-3.261-3.955-3.77-6.159l-.266-1.082c-.572-2.255-1.023-4.035,1.272-5.7,1.2-.869,1.8-1.56,1.843-2.11a1.344,1.344,0,0,0-.535-1.028.812.812,0,0,1-.276-.679c.057-.514.617-.867,1.211-1.24l.834-.565-.035-.118.151-1.063c0-.011.069-.614.069-.614l-6-2.461-11.919-5.71-9.863-6.02,1.367-3.818c0,.014,2.482-6.288,2.482-6.288l.032-.082-.337-4.557L867.5,702.35Z" transform="translate(-480.733 -481.047)" fill="#cce7ff" stroke="#fff" stroke-width="1"/>
    <path id="path_8664" data-name="path_8664" d="M345.491,773.04s-.249,1.119-.253,1.137l-10.059,14.25-3.658-.355-2.728-.321-.129-.016-1.691,1.014s-.773-1.821-.774-1.823c.018.013.822-1.059.822-1.059l.773-1.032-3.329,1.227h0c0-.056-2.66-3.811-2.66-3.811l-.159-.225-2.21.682h0c0-.013-2.408-1.137-2.408-1.137l-.086-.041-3.375.169-2.863,1.179L307.34,785.4l-1.513,2.355c0-.025-3.161-.341-3.161-.341l-.172-.017-2.7,2.531-3.509,1.5-3.161-3.033-2.154-2.488c.03,0,1.3-2.545,1.3-2.545l.241-.483-2.857-.342c-.066,0-3.043.164-3.043.164l-.047,0-1.816.56-.083.249c-.134.4-.5.54-1.012.689-1.064.312-2.019.81-2.019,3.437l.059,1.782c0,2.921-.927,3.77-1.747,4.519a3,3,0,0,0-.984,1.315c-.741,2.225-2.224,3.552-3.965,3.552-1.578,0-2.434.275-2.735,1.778l-.008.037,0,.086c0,1.187,3.368,4.836,5.491,6.856l.082.078.112.019c3.593.663,5.738,1.757,5.738,2.932,0,1.928-1.976,3.734-3.464,4.923-1.022.816-1.174,2.8-1.174,3.907a11.089,11.089,0,0,0,.268,2.5l.028.242c0,1.459-2.325,3.922-3.038,4.644l-.043.043-.028.057a12.444,12.444,0,0,0-1.359,4.038l.06.473.276.037a13.372,13.372,0,0,0,4.343-.665l.042-.013,5.334-3a.3.3,0,0,1,.2-.032l5.141.964.131-.247c.331-.622,1.225-2.064,2.39-2.064.65,0,1.349.911,2.235,2.064,1.284,1.673,2.739,3.567,3.97,2.686,1.391-.565,3.2-1.121,3.93-.939.622.155,3.528.474,4.86-.347a1.215,1.215,0,0,0,.6-.777l.543-2.718c.683-3.53,1.19-6.066,1.512-6.548.293-.439,1.027-.33,2.3-.1,1.372.246,2.555.416,3.148.021a32.84,32.84,0,0,0,3.888-4.311c1.165-1.414,2.246-2.724,3-3.479.886-.887,3.157-2.675,5.352-4.4a56.582,56.582,0,0,0,4.914-4.071.6.6,0,0,1,.489-.224c.965,0,3.409,2.364,6.535,6.312l.078.1.123.033c2.176.574,3.711,1.389,4.007,2.128l.055.292a2.929,2.929,0,0,1-.653,1.47l-.269.392,6.73,2.692,3.363,4.557c0,.009,1.717,3.29,1.717,3.29l.109.207,11.286-.163,6.446-8.823-3.114.173-4.5-4.182-4.013-10.047-.664-10.518c0-.039-1.493-8.807-1.493-8.807l-.024-.139-6.846-5.682-6.793-4.012Z" transform="translate(-221.051 -514.79)" fill="#cce7ff" stroke="#fff" stroke-width="1"/>
    <path id="path_8665" data-name="path_8665" d="M405.81,671.548l5.652,8.9-.039-.133c.127.261,1.091,1.648,8.434,12.223l2.176,5.861-2.012,4.831-2.675,2.669c.007-.006-6.088,3.453-6.088,3.453l-.122.07-1.519,4.218.5,8.748-.263,1.154-.06.27,6.762,3.993,6.827,5.669,1.5,8.9c0-.04.663,10.474.663,10.474l0,.06,4.033,10.082,4.549,4.21,3.063-.169,8.9-15.117c0,.013,7.529-1.951,7.529-1.951l.182-.048,1.843-4.353,3.536-10.942,2.344-6.7.841-2.521,5.3-.3,8.087-2.359,6.372-1.965-.493-.449a48.847,48.847,0,0,1-4.928-6.03c-3.359-4.511-7.538-10.122-10.877-11.057-5.093-1.426-18.01-4.422-21.262-4.862l-.222-.03-1.241,1.655a.286.286,0,0,1-.255.115.291.291,0,0,1-.235-.155c-.022-.041-2.223-4.194-3.923-5.256-.475-.3-2.029-1.551-4.18-3.288-6.367-5.14-18.219-14.709-26.673-19.517l-1.512-.893Z" transform="translate(-285.265 -465.982)" fill="#cce7ff" stroke="#fff" stroke-width="1"/>
    <path id="path_8666" data-name="path_8666" d="M510.864,766.77l-6.155,1.9-8.081,2.35-5.356.333-.85,2.55-2.344,6.7-3.535,10.938-1.834,4.33c0-.017-7.552,1.953-7.552,1.953l-.153.039-8.933,15.17,1.213.174.1-.01,3.769-.816,4.163-1.332.074-.024,4.033-3.529,4.332-.492,3.886-.507,2.525-4.549,2.673-2.168h0c0,.046,3.053,2.617,3.053,2.617l.089.075,4.693.5,2.875.169,2.522-.5c0,.005,4.036.974,4.036.974l.156.036,1.9-1.2,2.809-1.318h0c0,.026,4.765,3.313,4.765,3.313l.063.043,2.373.508,3.208-1.857,1.682-1.85,2.478.182c-.044,0-.208,3.121-.208,3.121v11.781l9.584,9.583,2.7.675,9.931-1.009.517-1.207.336-8.07.838-11.209.168-7.231c.009.007,2.435-2.744,2.435-2.744l.079-.09.342-2.895-2.536-1.352-3.7-1.85-2.125-5.093-.226-.022c-1.667-.157-3.238-.364-4.541-.6-6.376-1.139-28.382-13.974-31.871-16.373l-.227-.18Z" transform="translate(-314.24 -511.987)" fill="#cce7ff" stroke="#fff" stroke-width="1"/>
    <path id="path_8667" data-name="path_8667" d="M211.278,543.616c-1.251.866-4.159,3.187-4.159,6.015a4.025,4.025,0,0,0,.271,1.446l1.221,3.024c1.373,3.327,2.273,5.616,2.273,7.079a2.245,2.245,0,0,1-.14.844,11.5,11.5,0,0,1-1.487,2.3,9.954,9.954,0,0,0-2.185,4c-.235,1.648-1.648,2.931-3.284,4.416a29.628,29.628,0,0,0-2.487,2.444,23.2,23.2,0,0,1-5.043,3.5c-3.565,2.1-6.292,3.829-6.292,5.364,0,3.1-2.365,6.9-3.851,7.64a3.7,3.7,0,0,1-2,.13c-.883-.1-1.175-.088-1.369.05-.025.006-.271.125-.166.86a8.161,8.161,0,0,0,1.629,3.23,8.68,8.68,0,0,1,1.726,3.479c.134.938-.063,1.546-.586,1.807-.737.369-1.887-.183-2.591-.888l-.394-.275-.063.062c-.54.068-1.155,1.271-1.4,2.738-.363,2.181-3.447,2.89-3.578,2.92l-.172-.014c-.021-.009-2.24-.875-3.135-.065-.45.408-.506,1.215-.166,2.4l.418,1.508c1.184,4.319,2.3,8.4,5.7,8.681,4.251.355,6.567,1.1,8.549,2.751.767.639,1.734.437,2.956.18a7.237,7.237,0,0,1,6.076.807l2.17,1.412c2.576,1.651,3.751,2.4,4.318,4.105a10.017,10.017,0,0,1-.085,3.547c-.319,2.677-.3,3.642.072,3.977l.058.052.075.025c.132.044.454.053,1.126-.374a8.5,8.5,0,0,0,3.306-4.079,7.952,7.952,0,0,1,2.378-3.289c2.639-1.979,7.961-2.484,9.79-.289.917,1.1,4.992,1.457,9.448,1.753,2.713.18,3.856.28,4.244.539l.179.118.2-.081,1.991-.929c-.016,0,1.54-.138,1.54-.138l.329-.03s.173-3.346.178-3.422c.02-.075.66-2.477.66-2.477l2.174-3.173,1.793.687-.033,3.436c0,.05.31,2.355.31,2.355l.032.24,3.214,1.016,2.49,5.008c-.021-.011-1.383,1.8-1.383,1.8l-.139.184,4.863,10.231c.015.028,2.244,3.85,2.244,3.85l.135.231,10.112-1.854c-.016,0,11.515-1.5,11.515-1.5l.045-.006,3.555-1.354.673-16.146-1.853-2.865,1.187-5.865,1.166-3.994,5.645,2.21,4.084,2.943.111.08,6.846-.5,1.1-.24.53-.117-6.491-10.224-.071-.046a64.15,64.15,0,0,1-11.508-9.646c-1.705-1.733-2.937-2.985-3.968-3.382-.957-.369-3.207-2.105-7.1-5.142-7.011-5.469-17.6-13.728-25.78-17A57.33,57.33,0,0,1,222.1,556.4c-.99-1.2-2.119-2.781-3.315-4.453-2.388-3.338-5.093-7.122-7.095-8.341l-.211-.128Z" transform="translate(-173.633 -404.659)" fill="#cce7ff" stroke="#fff" stroke-width="1"/>
    <path id="path_8668" data-name="path_8668" d="M337.9,681.04l-1.07,3.665-1.181,5.9,1.855,2.867c-.009,0-.678,16.076-.678,16.076l-3.495,1.3-11.546,1.5L311.7,714.206l-2.314-4.028-4.849-10.2c.023.008,1.379-1.8,1.379-1.8l.142-.187-2.538-5.075-3.2-1.013-.307-2.522,0-3.5-1.908-.693-2.2,3.224-.672,2.49s-.169,3.391-.17,3.394c0-.037-1.746.121-1.746.121l-.066.006-2.2,1.027.148.34a11.908,11.908,0,0,1,.428,3.172c.18,2.683.425,6.351,1.98,7.517,3,2.253,4.591,4.915,4.591,7.7l-.118,1.306c-.315,1.738-.914,2.181-1.606,2.546-.47.248-.779.492-.779,1.582l.04.829.016.367c0,1.693-.984,2.9-1.936,4.074-.892,1.1-1.662,2.043-1.662,3.309a3.913,3.913,0,0,0,.53,1.866,12.39,12.39,0,0,1,1.547,5.918,11.116,11.116,0,0,1-.3,2.569l-.153.647,1.847-.568,3.066-.165,2.784.333c-.067.005-1.442,2.756-1.442,2.756l-.114.227,2.177,2.514c.026.028,3.053,2.9,3.053,2.9l.182.171,3.555-1.524,2.69-2.521c0,.014,3.115.326,3.115.326l.232.024,1.524-2.372,3.344-2.5,2.842-1.169,3.339-.164h0c0,.005,2.379,1.115,2.379,1.115l.132.062,2.2-.677h0c0,.051,2.654,3.8,2.654,3.8l.168.238,3.077-1.132-1.435,1.911.871,1.916,1.721-1.033,2.814.341,3.726.339,10.085-14.287.674-3.032-.5-8.747,1.507-4.158c0,.009,6.146-3.477,6.146-3.477l.045-.025,2.694-2.694,2.024-4.89-2.188-5.891-8.408-12.107-1.586.349-6.823.495h0c0-.013-4.128-2.985-4.128-2.985l-.04-.028-5.754-2.2Z" transform="translate(-230.087 -470.611)" fill="#cce7ff" stroke="#fff" stroke-width="1"/>
  </g>
</svg>
