<svg xmlns="http://www.w3.org/2000/svg" width="288.009" height="476.503" viewBox="0 0 288.009 476.503">
  <g id="그룹_6575" data-name="그룹 6575" transform="translate(-536.006 -1453.521)">
    <g id="map" transform="translate(536.506 1454.059)">
      <path id="패스_2361" data-name="패스 2361" d="M361.647,287.339l-3.407,1.893h-3.786l-3.407.378-2.272,3.786,4.544,4.165h3.408l2.65-1.136,3.786-1.136L364.3,293.4l3.029-1.514-1.136-3.029-2.271-1.136Z" transform="translate(-313.562 -201.899)" fill="#cce7ff" stroke="#fff" stroke-width="1"/>
      <path id="패스_2363" data-name="패스 2363" d="M343.623,281.658l.757,2.271a6.626,6.626,0,0,1,1.893.379c1.136.379,3.029-.757,3.029-.757l-.379-2.271-3.786-.379Z" transform="translate(-311.44 -199.247)" fill="#cce7ff" stroke="#fff" stroke-width="1"/>
      <path id="패스_2367" data-name="패스 2367" d="M392.972,296.134l.567-3.124v-2.556c0-.852-1.7-1.42-1.7-1.42a11.684,11.684,0,0,1-.569-2.556c0-.851,1.42-.568,1.42-.568l1.136-3.407,1.7-3.124-1.42-1.42s-3.691-1.988-4.827-2.556-1.42-2.556-1.42-2.556-2.84.284-3.692.284-2.557,2.936-2.557,2.936l.757,5.3v7.572l1.894,4.922,3.408,2.651,1.514,1.514.076.685a20.384,20.384,0,0,0,2.292-1.444Z" transform="translate(-327.089 -195.93)" fill="#cce7ff" stroke="#fff" stroke-width="1"/>
      <path id="패스_2368" data-name="패스 2368" d="M405.783,282.217l1.136,2.556-.568,1.988,2.556.568,2.556,1.7,3.407,2.84h2.84a19.31,19.31,0,0,1,3.407-.852c.852,0,1.136,1.136,1.136,1.136l1.7,1.42h3.691l2.556-2.556,3.124-2.272a11.511,11.511,0,0,0,.852-2.839,21.983,21.983,0,0,1,.285-2.556l1.42-1.988-1.42-.568h-2.556l-1.7-1.135.284-1.135.852-2.272v-2.272l-.284-1.988a7.688,7.688,0,0,0-.852-2.272,3.576,3.576,0,0,0-1.988-1.136l-4.544-.568-1.136,1.988-2.556,1.988-3.123-.852-1.42,2.84-1.7,3.124-4.26-.284-3.124-.852-2.9.791.629.629-1.7,3.124-.006.017,1.425.267Z" transform="translate(-335.641 -193.94)" fill="#cce7ff" stroke="#fff" stroke-width="1"/>
      <path id="패스_2369" data-name="패스 2369" d="M408.322,301.656c.852,0,4.26-.284,4.26-.284l2.556-2.272s2.84,0,3.408.852S422.8,304.5,422.8,304.5l3.124,2.555,1.7.569,3.692-3.692,3.691-3.976,4.827-3.975,3.124-1.7S445.238,292,446.09,292a13.683,13.683,0,0,1,3.408,0,6.248,6.248,0,0,0,2.271.284c.852,0,4.827-1.988,4.827-1.988l1.421-2.84.284-2.555,1.7-1.136,1.7.284a4.875,4.875,0,0,0,1.7-1.136l3.057-3.057c-.069-.814-.125-1.744-.125-2.619a14.932,14.932,0,0,1,1.515-5.3l1.514-4.544v-4.921l1.515-3.03,2.272-4.543-3.029-2.272.757-3.408,3.407-1.894,3.029-2.65L474.3,244.3a36.98,36.98,0,0,1-7.194-3.028,8.574,8.574,0,0,1-2.65-2.272,18.989,18.989,0,0,1-2.272-3.029l-3.408-.379h-1.136c-1.135,0-2.271,1.514-2.271,1.514l-1.515-.757a7.737,7.737,0,0,1,.757-3.408,2.783,2.783,0,0,0,.379-2.272l.379-3.028-2.65-.379a7.47,7.47,0,0,1-.757-2.65,1.689,1.689,0,0,1,1.136-1.515l.757-2.65a13.427,13.427,0,0,1-.379-2.65c0-1.136,1.515-3.786,1.515-3.786l3.407-2.272,3.029-.757,1.515-3.786-2.272-3.786-2.651-2.272-1.892-3.408s-1.893.379-6.437-2.272l-.757-4.922-.378-3.786-1.515-.757h-3.408l-1.515.757-3.029.757-2.65-1.136,1.514-3.786,1.515-3.028-1.136-1.894-3.028,1.515-2.651,1.514-2.272-1.136-.757-3.786-2.271-4.543-4.165-1.515.728-3.4-3,1.124-4.544.757-2.65,1.515-.379,3.786-1.514.757-4.165-2.272-3.408-.379-2.272.379-4.165,2.272-3.408,2.65-.379,3.408.757,3.029,2.272,1.514a6.424,6.424,0,0,0,3.03,0,7.549,7.549,0,0,1,3.786.378l1.514,1.137-1.136,1.892-.757,1.894-3.029.379-1.515,1.893-1.514.757-.378,1.894,1.892,3.029v3.028l-1.514,1.136-1.514-.757-2.272-2.272.378-2.65h-1.893a3.965,3.965,0,0,1-2.272,1.135h-3.408l-1.136,1.515,2.651,1.136s1.893,1.136,2.272,2.272a33.762,33.762,0,0,1,.757,4.165l-3.029.757-.379,1.894-.757,2.272v11.737c0,1.136-2.65,1.136-2.65,1.136l.379-3.408-1.514-5.3-4.544-.757-3.028.378-.757,3.03v8.33l1.515,3.407,1.135,1.894s1.705-2.936,2.557-2.936,3.692-.284,3.692-.284.284,1.988,1.42,2.556,4.827,2.556,4.827,2.556l.792.791,2.9-.791,3.124.852,4.26.284,1.7-3.124,1.42-2.84,3.123.852,2.556-1.988,1.136-1.988,4.544.568a3.576,3.576,0,0,1,1.988,1.136,7.687,7.687,0,0,1,.852,2.272l.284,1.988v2.272l-.852,2.272-.284,1.136,1.7,1.136h2.556l1.419.568-1.419,1.988a21.977,21.977,0,0,0-.285,2.556,11.512,11.512,0,0,1-.852,2.839l-3.124,2.272-2.556,2.556h-3.691l-1.7-1.42s-.284-1.136-1.136-1.136a19.31,19.31,0,0,0-3.407.852h-2.84l-3.407-2.84-2.556-1.7-2.556-.568.568-1.988-1.136-2.556L391,238.9l-1.425-.267-1.13,3.391s-1.42-.283-1.42.568a11.685,11.685,0,0,0,.569,2.556s1.7.568,1.7,1.42v2.556l-.568,3.124-1.42,1.136a20.377,20.377,0,0,1-2.292,1.444l.3,2.723-1.135,2.65,1.514,1.893,1.515,3.028h-3.029l-4.165-.379-3.029-.378-4.544,1.136a20.1,20.1,0,0,0-1.135,4.165c0,1.136,2.65,1.893,2.65,1.893l2.651-.378s2.271,1.514,2.271,3.786a14.969,14.969,0,0,0,1.136,4.922l3.029.379,3.028-3.029h3.408l-.378,4.544-2.272,1.893v4.543l.757,3.03s3.029,4.543,3.029,5.679,4.165,4.923,4.165,4.923l2.651,1.514,6.343-1.137S407.47,301.656,408.322,301.656Z" transform="translate(-322.845 -152.041)" fill="#cce7ff" stroke="#fff" stroke-width="1"/>
      <path id="패스_2370" data-name="패스 2370" d="M450.578,435.241l-1.7-1.42-3.692-1.7a4.222,4.222,0,0,0-1.988,0,18.924,18.924,0,0,0-1.988.851s-.284,2.272-.284,3.124a9.044,9.044,0,0,0,0,2.84c.284,1.7,1.42,2.84,1.42,3.692s1.42,2.84,1.42,2.84a3.136,3.136,0,0,0,1.988.852c1.136,0,1.42,2.272,1.42,2.272a6.19,6.19,0,0,0-.284,1.7v2.84l1.988,2.84-.284,1.42s-1.7-1.136-1.42,1.42,3.124,3.976,3.124,3.976l.681,1.136h1.874l3.408-2.84s1.7-1.42,1.7-2.272a15.305,15.305,0,0,1,.284-2.272v-3.123l-2.272-2.556-.851-2.272a19.4,19.4,0,0,1-1.136-3.691,15.061,15.061,0,0,1,.852-3.124l.284-3.692.568-2.556h-2.272Z" transform="translate(-351.471 -261.489)" fill="#cce7ff" stroke="#fff" stroke-width="1"/>
      <path id="패스_2371" data-name="패스 2371" d="M419.394,471.469c-.283-1.42-.569-3.124-.852-3.975a15.059,15.059,0,0,1-.285-3.975,1.9,1.9,0,0,0-1.42-1.989l-3.691-2.27-2.556-.285-1.7,1.988a36.945,36.945,0,0,1-4.259.851h-1.7l-1.42-1.7-.852-3.124-1.7-1.136-.284,3.692-1.136,2.84-3.407-1.989a20.471,20.471,0,0,1-2.556-10.223,15.056,15.056,0,0,1,.852-3.123l1.7-4.544-.568-3.691h.681l-.681-1.136s-2.84-1.42-3.124-3.976,1.42-1.42,1.42-1.42l.284-1.42-1.988-2.84v-2.84a6.19,6.19,0,0,1,.284-1.7s-.284-2.272-1.42-2.272a3.136,3.136,0,0,1-1.988-.852s-1.42-1.988-1.42-2.84-1.135-1.988-1.42-3.692a9.044,9.044,0,0,1,0-2.84c0-.851.284-3.124.284-3.124a18.93,18.93,0,0,1,1.988-.851,4.222,4.222,0,0,1,1.988,0l3.692,1.7,1.7,1.42,2.84.283h2.272l1.988-1.988,2.272-1.7,1.135.852H406.9l1.136-1.136v-2.272l-1.988-2.556-1.7-1.988-1.7-1.988s-1.42-1.7-1.988-2.556a14.486,14.486,0,0,1-1.136-3.123l-1.7-.569-3.124-2.555s-3.691-3.691-4.259-4.544-3.408-.852-3.408-.852l-2.556,2.272s-3.408.284-4.26.284-4.544.568-4.544.568l-6.343,1.137-1.894,1.894-4.165,1.893-1.515-3.408s-1.135-2.651-1.514-3.786-3.408-3.786-3.408-3.786l-4.922-2.271-5.3-1.893-3.408-2.272-4.544-3.028-3.029,1.893.379,5.3-1.515-.379-3.407-3.408-3.408.379-3.028,1.894v3.408l3.028,2.272.379,3.028-3.407,4.166-3.786-.379-.757-2.272.379-2.651-.757-3.786-2.651,1.893-1.892,1.515-3.786.378-1.515,3.03-2.272,3.407-3.408,2.651a4.536,4.536,0,0,0-1.136,3.029V398.3s.757,1.894,2.272,1.515l1.514-.379,3.029.757-1.514,1.893.757,3.028L312.9,403.6h1.515l.757,5.3v5.68l3.407-.379a12.168,12.168,0,0,0,1.514-2.65c.379-1.136,1.515-.757,2.272.378a11.664,11.664,0,0,0,2.272,2.272l4.165-1.894,1.514-2.272,1.136,4.544-1.136,6.058v6.436l.379,7.573,1.136,3.407,1.892,3.786-1.136,2.272-1.514,3.408,2.272,2.65v2.272l-1.514,2.65v2.651l-3.786,3.407-.757,2.272,1.893.379h3.408l2.65,1.893,2.272,3.029,1.136,3.03,3.028,4.165,2.272,1.892.064.136,3.251-1.084c.852-.283,3.124-.569,3.976-.852a6.227,6.227,0,0,0,2.84-1.7c1.135-1.136,1.135-1.7,2.555-3.124s1.42-1.7,1.42-1.7a19.687,19.687,0,0,1,3.408-3.123,23.29,23.29,0,0,1,3.124-1.136l3.407-.567,5.4,2.84.283,2.272,2.84,2.272,2.839.568h1.988l1.7-1.136s2.555.852,3.975,1.136a1.323,1.323,0,0,0,1.7-.851h2.84a6.173,6.173,0,0,0,1.7-.285l2.272-1.42,1.988.852s.852,3.124,1.136,3.975a9.665,9.665,0,0,1,.284,2.841v3.975l.567,1.42,2.556-2.272,1.42-.852.568,1.42.283,2.556,3.124.851,2.556-.851,1.136-1.136,1.135-1.988,1.7-.568a10.712,10.712,0,0,1,2.271,1.988,2.865,2.865,0,0,1,.568,1.419h1.7V479.7l1.988-3.122S419.678,472.889,419.394,471.469Z" transform="translate(-294.729 -236.38)" fill="#cce7ff" stroke="#fff" stroke-width="1"/>
      <path id="패스_2372" data-name="패스 2372" d="M473.161,494.776a4.113,4.113,0,0,1,1.135-2.556l.853-1.988,1.7-1.988.284-1.988-1.988-2.556-.853-2.84-2.271-1.135-2.556,1.135-1.988-1.135-1.136-2.84-1.988-1.42-1-.285a10.5,10.5,0,0,0-.137,1.421c0,.852-1.7,2.272-1.7,2.272l-3.408,2.84h-2.555l.568,3.691-1.7,4.544a15.057,15.057,0,0,0-.852,3.123,20.471,20.471,0,0,0,2.556,10.223l3.407,1.989,1.136-2.84.284-3.692,1.7,1.135.852,3.124,1.42,1.7h1.7a36.946,36.946,0,0,0,4.259-.851l1.7-1.988.125.014a13.859,13.859,0,0,1,1.295-3.421A13.943,13.943,0,0,1,473.161,494.776Z" transform="translate(-356.731 -279.282)" fill="#cce7ff" stroke="#fff" stroke-width="1"/>
      <path id="패스_2373" data-name="패스 2373" d="M490.486,471.465l3.124,1.42,1.136,1.135,1.987.853s3.692-.285,4.544-1.136,2.556.568,2.556.568l3.408.283,3.691-2.271,3.408-3.408,1.136-3.408v-5.4c0-.852,2.271-.852,2.271-.852l3.408-.568,1.136-3.123a16.6,16.6,0,0,0-3.124-3.976c-1.7-1.42,0,0-.851.567s-4.544-.851-4.544-.851-1.987-1.421-2.839-1.421h-3.123c-.853,0-1.7-.285-2.272-1.988a2.239,2.239,0,0,1,.568-2.556l2.272-3.408,1.7-1.137-1.42-1.987v-3.692l.852-.284c.851-.285.283-2.556.283-3.692s-.851-1.42-.851-2.272a15.976,15.976,0,0,1,.568-2.84v-2.272l-1.421-2.84s-1.419-.852-1.7-1.7-1.136-.568-1.988-1.136.568-1.7.568-1.7l2.84-1.136,1.42-1.7,1.7.852,1.136,1.7,1.988.284.568-2.272a11.5,11.5,0,0,1-.853-2.839c0-.853-1.136-1.988-1.136-1.988l.285-1.7,2.84-.284,1.7-1.42,1.988-1.42,2.84,1.136,2.272,1.7,1.7-.283-.283-2.84-1.42-2.84,1.42-2.84,2.271-.284,1.988-.568,2.556-1.7,2.555.284,1.42,1.42,1.7.852,1.42-2.272,1.421-1.988,1.7-.853,2.556.284,1.42,1.988,2.271,1.42,1.42,1.7,1.988.568,1.7-.284h2.272l1.988-.852v-1.988s-1.42-1.988-1.42-3.124,1.42-2.556,1.42-2.556l.568-2.272,1.42-2.556,2.556-.852.568-1.7,1.136-1.136h3.124L570,379.742l.284-1.988h1.988l3.692-1.42,1.217-1.522c-.592-.065-3.788-.439-4.817-1.125-1.136-.757-3.028-2.272-3.028-2.272L566.3,369.9l-2.65.757s-3.407-.379-3.786-1.514a31.561,31.561,0,0,1-.757-3.786l-3.408-1.136-2.65,1.514h-4.165l-1.515-.378v-2.272l1.893-1.514,2.651-.758,1.136-1.893s-2.651-1.136-3.787-1.514-4.922-2.272-4.922-2.272l-2.271,1.514h-4.543c-2.651,0-2.272,1.893-3.407,1.893s-3.408,1.515-3.408,1.515l-2.272-1.515a20.416,20.416,0,0,0-.378-4.165,12.2,12.2,0,0,0-1.515-2.65l-2.65.379a16.169,16.169,0,0,0-4.544,3.408v3.028l-.757,1.893-1.893,1.136a50.618,50.618,0,0,1-8.707-.758c-3.408-.757-3.408-2.272-3.408-2.272s-.143-1-.255-2.3l-3.057,3.057a4.875,4.875,0,0,1-1.7,1.136l-1.7-.284-1.7,1.136-.284,2.555-1.421,2.84s-3.975,1.988-4.827,1.988a6.248,6.248,0,0,1-2.271-.284,13.682,13.682,0,0,0-3.408,0c-.852,0-3.124,2.272-3.124,2.272l-3.124,1.7-4.827,3.975-3.691,3.976L465.5,384a14.487,14.487,0,0,0,1.136,3.123c.568.853,1.988,2.556,1.988,2.556l1.7,1.988,1.7,1.988,1.988,2.556v2.272l-1.136,1.136h-2.556l-1.135-.852-2.272,1.7-1.988,1.988-.568,2.556-.284,3.692a15.061,15.061,0,0,0-.852,3.124,19.4,19.4,0,0,0,1.136,3.691l.851,2.272,2.272,2.556v3.123s-.075.373-.147.852l1,.285,1.988,1.42,1.136,2.84L473.448,430,476,428.869,478.275,430l.853,2.84,1.988,2.556-.284,1.988-1.7,1.988-.853,1.988a4.113,4.113,0,0,0-1.135,2.556,13.942,13.942,0,0,0,.852,3.693,13.86,13.86,0,0,0-1.295,3.421l2.431.271,3.691,2.27a1.9,1.9,0,0,1,1.42,1.989,15.057,15.057,0,0,0,.285,3.975c.283.852.568,2.555.851,3.975s1.136,5.113,1.136,5.113l-.9,1.413,2.036.857Z" transform="translate(-360.71 -228.424)" fill="#cce7ff" stroke="#fff" stroke-width="1"/>
      <path id="패스_2374" data-name="패스 2374" d="M330.261,601.51a11.842,11.842,0,0,0-.568,3.124,4.108,4.108,0,0,0,1.136,2.556,11.7,11.7,0,0,1,.568,2.556c0,.852,1.7,1.419,1.7,1.419l1.988-.567,2.272.285,1.7,1.136,1.988-.285.853-2.272,2.555-.852,2.84-1.7a32.64,32.64,0,0,0,1.988-3.123,6.623,6.623,0,0,0,.284-3.124,22.733,22.733,0,0,1,1.42-3.123c.567-.852,3.691-1.136,3.691-1.136h4.26l1.988.568a6.43,6.43,0,0,1,1.7,1.989,37.211,37.211,0,0,0,1.988,3.691l.567,2.84,1.7,1.136,1.988-1.42.285-4.26,2.555-2.556,2.556-.568,2.272,1.7.568,3.124-1.42,2.272.852,2.272v2.84l-1.988,1.7-.852,1.42,2.84.853,1.988,2.272,1.7-.568a15.413,15.413,0,0,1,3.124-.568c1.135,0,1.988-.284,2.84-.284a4.667,4.667,0,0,0,2.555-.568,2.348,2.348,0,0,1,2.272.285l3.691,1.987h2.556l3.692.569,3.407-.852,2.84-2.839,2.556.568a25.238,25.238,0,0,0,3.692.283,3.3,3.3,0,0,1,3.124,1.988,10.261,10.261,0,0,0,3.691,2.555c1.7.853,0,0,.853-.852s-.285-1.7-.285-1.7.285-3.976,1.42-5.112,3.692-.851,3.692-.851l1.42-2.272-.852-2.272a15.291,15.291,0,0,1-.284-2.272,19.368,19.368,0,0,0-.284-3.407c-.283-1.988-.567-1.135-1.42-2.84s-1.42-1.988-1.42-1.988l.567-3.123,1.988-3.692.567-3.123,2.84-7.951s1.42-1.988,2.272-3.408,2.271-3.124,2.839-3.975a25.8,25.8,0,0,1,2.84-2.84h2.555l3.692-1.988s1.419-.851,2.272-1.42a16.049,16.049,0,0,0,2.839-3.124c1.136-1.42,1.136-1.7,1.136-1.7l2.555-1.7L451.8,553.8l-.853-1.42-1.988-3.124.346-1.3-1.482-.123s-1.7-1.42-2.556-.568-4.544,1.136-4.544,1.136l-1.987-.853-1.136-1.135L434.477,545l-2.84-.569-2.036-.857-1.087,1.709v3.975h-1.7a2.864,2.864,0,0,0-.568-1.419,10.713,10.713,0,0,0-2.271-1.988l-1.7.568-1.135,1.988L420,549.545l-2.556.852-3.124-.852-.283-2.556-.568-1.42-1.42.852-2.556,2.272-.567-1.42V543.3a9.664,9.664,0,0,0-.284-2.841c-.284-.852-1.136-3.975-1.136-3.975l-1.988-.852-2.272,1.42a6.174,6.174,0,0,1-1.7.285H398.7a1.323,1.323,0,0,1-1.7.852c-1.42-.284-3.975-1.136-3.975-1.136l-1.7,1.136h-1.988l-2.839-.568-2.84-2.272-.283-2.272-5.4-2.84-3.407.567a23.292,23.292,0,0,0-3.124,1.136,19.684,19.684,0,0,0-3.408,3.123s0,.285-1.42,1.7-1.42,1.988-2.555,3.124a6.229,6.229,0,0,1-2.84,1.7c-.851.283-3.124.569-3.976.851l-3.251,1.084c.222.484.907,2.136-.064,2.136-1.136,0-2.272.757-3.408.757h-3.408l-5.679-.757-2.651,1.893,1.136,1.514,3.029.379,1.514.379.757,2.65.757,3.786L349,555.51l6.058-.757,6.437-1.136.378,2.271s-1.515,1.515-2.65,1.515h-3.029a29.366,29.366,0,0,0-3.408.379s-1.893,1.135-1.136,2.65,3.408,2.65,3.408,2.65l1.893,2.272L358.088,568l-3.408-.379-2.65-2.272h-1.515l-2.65.38-3.786,3.785-2.271,3.786-3.408.757-4.543,2.272-2.651,2.272a8.56,8.56,0,0,0,0,3.408,5.252,5.252,0,0,0,2.272,3.029l4.165-.379,6.815,1.136,2.65,2.271-3.029.379h-2.65l-1.515.379-4.165.757L333.1,591.1l-3.408,2.651-2.425,3.031c.865.959,1.639,1.843,1.859,2.173A14,14,0,0,1,330.261,601.51Z" transform="translate(-304.701 -301.961)" fill="#cce7ff" stroke="#fff" stroke-width="1"/>
      <path id="패스_2375" data-name="패스 2375" d="M418.1,694.716c0-1.7-.853-1.987-1.42-3.691a2.059,2.059,0,0,0-2.272-1.419s-2.556-3.408-2.556-5.4A7.21,7.21,0,0,0,411,680.8l-2.555-.852a13.825,13.825,0,0,1-2.272-2.84c-.284-.852,0-1.419,0-3.408a39.455,39.455,0,0,0-.568-4.26,15.978,15.978,0,0,1,.568-2.839l-1.07-1.927c-.228.708.837,1.243-.634.507a10.262,10.262,0,0,1-3.691-2.555,3.3,3.3,0,0,0-3.124-1.988,25.238,25.238,0,0,1-3.692-.283l-2.556-.568-2.84,2.839-3.407.852-3.692-.569h-2.556l-3.691-1.987a2.348,2.348,0,0,0-2.272-.285,4.667,4.667,0,0,1-2.555.568c-.852,0-1.7.284-2.84.284a15.412,15.412,0,0,0-3.124.568l-1.7.568-1.988-2.272-2.84-.853.852-1.42,1.988-1.7v-2.84l-.852-2.272,1.42-2.272-.568-3.124-2.272-1.7-2.556.568-2.555,2.556-.285,4.26-1.988,1.42-1.7-1.136-.567-2.84a37.213,37.213,0,0,1-1.988-3.691,6.43,6.43,0,0,0-1.7-1.989l-1.988-.568h-4.26s-3.124.284-3.691,1.136a22.736,22.736,0,0,0-1.42,3.123,6.623,6.623,0,0,1-.284,3.124,32.64,32.64,0,0,1-1.988,3.123l-2.84,1.7-2.555.852-.853,2.272-1.988.285-1.7-1.136-2.272-.285-1.988.567s-1.7-.567-1.7-1.419a11.7,11.7,0,0,0-.568-2.556,4.108,4.108,0,0,1-1.136-2.556,11.842,11.842,0,0,1,.568-3.124,13.993,13.993,0,0,0-1.136-2.555c-.22-.33-.994-1.214-1.859-2.173l-.6.755-1.514,2.65-.757,3.029v2.651l-2.272,1.515-1.136,1.514-1.894,3.786-3.786,1.893-1.514,3.786v2.272l3.786,1.514,2.65,5.3,3.786,4.543,2.272,1.515-.757,1.893-3.029,1.892-1.515,2.272-2.65-3.408-2.651,1.136a1.465,1.465,0,0,0,0,1.893l.758,1.136-1.894,2.651-1.515,2.272-1.893,2.271,3.029,1.893,3.408-.378,1.514,3.785-2.271,3.408s-2.272,1.893-2.272,3.029v5.679l1.135,3.028,3.787,1.515,3.029,2.272,3.408,2.65v3.029l-3.029-.757-3.029-3.408-3.408-.757-1.515.757v2.272l1.893,2.65v3.786l-3.029-.759a39.8,39.8,0,0,0-.758-4.921c-.378-1.135-1.514-4.165-1.514-4.165l-1.893-1.514-3.03-.379s-1.892,1.515-1.892,2.65a36.673,36.673,0,0,0,.757,4.544l1.515,3.028s2.65,3.03,4.165,4.923,2.272,3.408,3.407,3.408a29.364,29.364,0,0,1,3.408.379l1.514,4.164.757,3.787,2.272,1.893-1.136,2.65-.757,2.272a5.494,5.494,0,0,0-.379,2.272c0,1.514,1.514,4.922,1.514,4.922l1.515,2.65,3.407-.379a7.97,7.97,0,0,0,3.029-2.271,9.72,9.72,0,0,0,1.894-4.544,3.933,3.933,0,0,1,1.893-2.65l5.3-3.029L326,746.5s1.892-1.514,1.892-2.65a55.158,55.158,0,0,1,1.515-6.436l3.029-3.03s1.136,2.272.757,3.408a7.561,7.561,0,0,0-.757,3.407,22.908,22.908,0,0,0,.757,5.679,6.249,6.249,0,0,0,1.893,2.273,8.252,8.252,0,0,0,2.272.379,46.49,46.49,0,0,0,4.923-.758,16.685,16.685,0,0,1,1.893-2.272,11.679,11.679,0,0,0,1.894-2.65l1.892-3.03,1.137-3.028V734l1.135-1.893,3.029-1.515,1.514-1.136,4.165-2.272,3.786-.757,4.543-2.271,4.165-3.408,3.029,1.136,2.272.379,1.514,3.028-2.272,4.543-.757-2.651-3.029-.757L370.3,728.7v3.787l-2.65,3.408-1.515-.379-2.65.379s-4.922,1.514-4.922,2.649,1.514,4.923,1.514,4.923a20.389,20.389,0,0,0,3.03.379h3.786c1.135,0,1.893-1.136,3.029.757l2.272,3.787,1.893,4.543,2.272-.378a5.425,5.425,0,0,1,.757-2.651,2.946,2.946,0,0,1,2.272-1.136,6.544,6.544,0,0,0,1.893-1.894,5.257,5.257,0,0,1,2.65-1.892V742.71s-1.136-2.65,0-2.65a15.605,15.605,0,0,0,3.408-.757l3.029-.758.757-3.028-1.136-2.651L386.2,729.08s-2.651-2.273-2.651-3.408v-5.679l2.272-3.407,5.3-3.03H396.8s.379,1.137.757,2.273a49.312,49.312,0,0,0,2.272,4.543l-.379,3.408-1.515,2.65v4.165l2.272,3.029,2.272,1.136,1.136-1.514v-3.787l2.272-3.029h3.787l4.165,1.894,1.515-1.515V723.4a29.412,29.412,0,0,0,.378-3.408V715.07l-2.65-.757a28.278,28.278,0,0,1-4.165.757,49.189,49.189,0,0,1-5.68-1.136l-1.514-4.164.757-1.894h6.437l1.19-.894.326-2.612,2.84-2.272s2.84-.284,3.975-1.987l1.136-1.7A30.925,30.925,0,0,1,418.1,694.716Zm-64.177-15.051-.852,1.988s-.852,1.7-1.988,1.988-.852,1.136-.852,1.136l-2.272-.284-1.7-.852-3.976,1.136-3.691-.284-2.556.284-1.7-1.988-1.988-1.988-3.124-.852-2.556-1.136-.852-1.42a5.165,5.165,0,0,1-.851-3.124,7.29,7.29,0,0,1,1.136-2.556l1.42-1.419a44.29,44.29,0,0,0,3.124-3.408c.567-.852,2.839-1.136,2.839-1.136l3.976,2.272,5.111-1.136a15.073,15.073,0,0,1,3.124-.852h1.7l2.556,2.272,1.988,3.407,2.272,1.705a9.536,9.536,0,0,1,1.136,2.839A13.568,13.568,0,0,1,353.925,679.666Z" transform="translate(-288.894 -348.312)" fill="#cce7ff" stroke="#fff" stroke-width="1"/>
      <path id="패스_2376" data-name="패스 2376" d="M377.2,687.828l-1.988-3.407-2.556-2.272h-1.7a15.072,15.072,0,0,0-3.124.852l-5.111,1.135-3.976-2.272s-2.272.285-2.839,1.136a44.281,44.281,0,0,1-3.124,3.408l-1.42,1.419a7.29,7.29,0,0,0-1.136,2.556,5.165,5.165,0,0,0,.852,3.124l.852,1.42,2.556,1.136,3.124.852L359.6,698.9l1.7,1.988,2.556-.284,3.691.284,3.976-1.136,1.7.852,2.272.284s-.284-.852.852-1.136,1.988-1.988,1.988-1.988l.852-1.988a13.569,13.569,0,0,0,1.42-3.407,9.535,9.535,0,0,0-1.135-2.839Z" transform="translate(-314.16 -364.425)" fill="#cce7ff" stroke="#fff" stroke-width="1"/>
      <path id="패스_2377" data-name="패스 2377" d="M697.979,687.234l-1.136-1.42-3.124-.569-2.556.284-1.42.852-2.839,1.135s-.568-.568-1.137.285a9.442,9.442,0,0,1-2.84,3.124c-1.42.851-.568,1.7-3.123,1.986l-2.556.285-1.988,1.988c-.851.852-2.272,2.555-2.272,2.555a9.229,9.229,0,0,1-2.271.568c-1.705.283-2.273,0-3.408.568a22.423,22.423,0,0,1-3.692,1.135,7.481,7.481,0,0,0-2.271,2.273c-.852,1.42.852.284-.852,1.42s-3.124.285-3.692,1.136,0-.567-.567.853.851,1.7.851,2.555a15.3,15.3,0,0,0,.284,2.272s-.569,1.42-1.135,2.555c-.152.305-.492.942-.9,1.707h7.907l3.028-.758,2.272-1.135.379,4.164,2.65.379,2.651-.379,3.028,1.136.757-3.03,3.029-.378,3.028-2.65a10.566,10.566,0,0,0,6.437-4.544l2.272-5.679,1.135-2.271,2.272-3.787,1.892-2.65,1.953-.886c-.627-.765-1.194-1.388-1.194-1.388Z" transform="translate(-439.849 -365.818)" fill="#cce7ff" stroke="#fff" stroke-width="1"/>
      <path id="패스_2378" data-name="패스 2378" d="M723.214,633.737l-4.828-.568-1.987,1.42-2.84.568a8.413,8.413,0,0,1-.852-1.136c-.569-.852-1.988-3.124-1.988-3.124l-1.136-2.272s-.567.285-3.124-.568l-2.555-.852-2.272-.568a1.1,1.1,0,0,0-1.42,0l-2.556,1.7a3.535,3.535,0,0,0-1.988,1.987,13.546,13.546,0,0,0-1.135,3.408l-2.272.284-1.7,2.272s.852,3.408,0,3.692S688,641.12,688,641.12a8.819,8.819,0,0,0-.283,3.124c.283.852,3.975,3.124,3.975,3.124l2.556.284,1.7,2.272s2.272.851,2.556,1.7a7.417,7.417,0,0,0,1.988,2.839c1.136,1.136,1.7.852,2.273,1.7a7.638,7.638,0,0,0,1.987,1.7,6.222,6.222,0,0,1,.852,2.271,8.694,8.694,0,0,0,.109,1l1.31-.146,3.124.569,1.136,1.42.85,3.692s.567.623,1.194,1.388l2.212-1.007,1.894-3.03.379-2.272.379-3.029,1.136-3.028,2.272-2.65h1.514l3.03-3.407.756-5.681.758-6.057V636.39l.308-.644-1.631-.306Z" transform="translate(-453.158 -341.57)" fill="#cce7ff" stroke="#fff" stroke-width="1"/>
      <path id="패스_2379" data-name="패스 2379" d="M601.979,614.669a4.239,4.239,0,0,0-2.271,0l-1.988,1.42a13.582,13.582,0,0,1-3.408,1.42c-.852,0-2.272,1.7-2.272,1.7l-3.124,1.135h-4.259s-2.84-.568-3.408-1.42-3.124-.283-3.124-.283l-2.272-.853-3.408,1.421-1.7-1.421-1.421-3.123-1.42-2.556-1.7-3.692-2.272,3.408a41.4,41.4,0,0,1-4.827,1.136,16,16,0,0,0-2.84.568h-2.839l-2.272-.568a32.406,32.406,0,0,1-4.26-1.7c-.851-.567-4.542-.567-5.4-.567h-2.555l-2.556-1.42,1.7-2.556,1.42-2.839.568-2.272-.852-2.84-2.84-1.42a8.711,8.711,0,0,1-1.7-2.556c-.568-1.42-1.136-1.7-1.42-3.407s-1.136-1.135-1.136-1.135h-2.272l-5.679-.569-1.988-2.272-2.272-.851-1.7-1.42-3.756-4.349c-.138.188-.3.4-.5.656a16.049,16.049,0,0,1-2.839,3.124c-.853.569-2.272,1.42-2.272,1.42l-3.692,1.988h-2.555a25.8,25.8,0,0,0-2.84,2.84c-.568.852-1.988,2.556-2.839,3.975s-2.272,3.408-2.272,3.408l-2.84,7.951-.567,3.123-1.988,3.692-.567,3.123s.567.284,1.42,1.988,1.136.852,1.42,2.84a19.366,19.366,0,0,1,.284,3.407,15.292,15.292,0,0,0,.284,2.272l.852,2.272-1.42,2.272s-2.556-.285-3.692.851-1.42,5.113-1.42,5.113,1.136.852.285,1.7a.841.841,0,0,0-.219.345l1.07,1.927a15.979,15.979,0,0,0-.568,2.839,39.455,39.455,0,0,1,.568,4.26c0,1.988-.284,2.556,0,3.408a13.826,13.826,0,0,0,2.272,2.84l2.555.851a7.21,7.21,0,0,1,.852,3.408c0,1.987,2.556,5.4,2.556,5.4a2.059,2.059,0,0,1,2.272,1.419c.567,1.7,1.42,1.988,1.42,3.691a30.925,30.925,0,0,0,.283,3.692l-1.136,1.7c-1.135,1.7-3.975,1.987-3.975,1.987l-2.84,2.272-.326,2.612.324-.243,1.893,1.137,3.03,2.271,2.272-.378,1.136-3.787,4.543-1.135h1.894l3.407-1.136,2.272-1.514,4.923-.38s2.271.379,2.65-1.514a20.228,20.228,0,0,1,1.515-4.165h1.515l1.136,3.028v3.408l-1.136,4.922,1.892,1.894,1.894,1.893,4.165.378h2.272l3.029-1.892h2.65l3.029,1.514,3.029-2.271.757,2.649-2.65,1.515-.378,2.272a5.238,5.238,0,0,0,2.65.757h4.544l-.757,2.65-4.165,1.893-.378,1.515s3.029.757,3.408,2.65a9.208,9.208,0,0,0,2.271,3.785l3.786-.378a11.024,11.024,0,0,0,.758-3.029V695.6l2.272-2.651.379-1.514-1.893-2.272-2.273-2.65v-3.028a3.7,3.7,0,0,1,.757-3.03,15.621,15.621,0,0,1,3.787-2.272l1.135-1.893-.378-3.029-.757-3.029,4.543-1.135s2.272-.758,3.407,0a14.344,14.344,0,0,1,2.651,3.028l2.272-1.893-1.135-4.921.757-2.65a5.426,5.426,0,0,1,2.651.757c1.135.757,4.165,3.029,4.165,3.029s2.272.379,2.651,1.514,4.165,3.787,4.165,3.787h1.938c.413-.765.752-1.4.9-1.707.567-1.136,1.135-2.555,1.135-2.555a15.305,15.305,0,0,1-.284-2.272c0-.852-1.42-1.135-.852-2.555s0,0,.567-.853,1.989,0,3.692-1.136,0,0,.852-1.42a7.481,7.481,0,0,1,2.271-2.273,22.421,22.421,0,0,0,3.692-1.135c1.135-.568,1.7-.285,3.408-.568a9.229,9.229,0,0,0,2.27-.568s1.421-1.7,2.272-2.555l1.988-1.988,2.556-.285c2.555-.283,1.7-1.136,3.122-1.986a9.443,9.443,0,0,0,2.84-3.124c.569-.853,1.137-.285,1.137-.285l2.839-1.135,1.42-.852,1.245-.138a8.693,8.693,0,0,1-.109-1,6.222,6.222,0,0,0-.852-2.271,7.637,7.637,0,0,1-1.987-1.7c-.569-.851-1.137-.567-2.273-1.7a7.417,7.417,0,0,1-1.988-2.839c-.283-.853-2.556-1.7-2.556-1.7l-1.7-2.272-2.556-.284s-3.692-2.272-3.975-3.124a8.822,8.822,0,0,1,.284-3.124s1.7-.852,2.556-1.136,0-3.692,0-3.692l.864-1.152a2.822,2.822,0,0,1-.58-.268C607.09,615.521,603.684,614.953,601.979,614.669Z" transform="translate(-370.259 -322.787)" fill="#cce7ff" stroke="#fff" stroke-width="1"/>
      <path id="패스_2380" data-name="패스 2380" d="M615.419,601.525l2.273-1.135,3.123-.285,1.419,3.125,2.84.283,2.556-1.136s.283-2.556.283-3.408a15.582,15.582,0,0,1,1.136-3.408,18.913,18.913,0,0,0,.852-1.987,6.244,6.244,0,0,0,.285-2.272v-1.988l.852-1.7h2.272c2.272,0,2.272-1.42,2.272-1.42l-.568-1.7-1.42-2.27.852-1.989v-2.272a14.41,14.41,0,0,0-1.136-3.123c-.568-.853-3.408-1.136-3.408-1.136h-5.679l-3.975,2.272-3.124,2.556-1.137,2.556-1.135,2.271-2.556-.285-.284-2.84-1.42-.852-3.691.568-2.556,2.556-1.135,1.42,1.421,2.272,3.975.852,1.987,1.135v2.273l-1.987,1.135-3.407.568-1.421,3.692,1.7,3.407.569,1.988-1.137,1.42-1.419,1.136-1.988-1.42h-1.135l.284,1.988.851,1.988,1.42,1.42.283,2.84a16,16,0,0,1,2.84-.568,41.408,41.408,0,0,0,4.827-1.136l2.271-3.408.4.862.454-2Z" transform="translate(-417.207 -319.865)" fill="#cce7ff" stroke="#fff" stroke-width="1"/>
      <path id="패스_2381" data-name="패스 2381" d="M674.091,495.541l-1.514,1.514-1.515,2.272-2.272,2.272-2.272.757s-3.028.379-3.786-.757l-.757-1.136-1.515-3.408,1.894-1.892.756-3.408a11.644,11.644,0,0,0-.756-4.164c-.759-1.514-1.894-4.544-1.894-4.544v-6.058a17.4,17.4,0,0,1,.378-3.785c.379-3.03,1.516-4.544,1.516-5.68s1.892-3.408,1.892-3.408l1.894-4.165,1.135-3.407A11.751,11.751,0,0,0,668.411,452a14.408,14.408,0,0,0-1.136-6.058l-.757-1.514s-.757-1.894.757-5.679a33.5,33.5,0,0,1,3.786-6.815l.757-3.029-.378-3.786-1.515-4.922s-2.272-3.786-2.272-4.923-.378-5.679-.378-7.951,1.893-5.679,1.893-6.815.379-6.058,0-7.194-1.893-2.65-2.271-3.786c-.293-.877-1.036-2.657-1.534-3.946l-3.769,1.675-4.542,1.135-2.272,3.029-1.893,3.408a13.956,13.956,0,0,1-3.408-1.514,5.809,5.809,0,0,1-2.272-3.786l-4.543-.379-3.03,1.893h-3.029s-2.65-.757-3.786-1.135l-2.272-.757-1.892.379-2.272,1.514-1.136,1.515-2.271-.757-.757-2.65-3.03-1.515h-1.514l-3.029,1.893-.379,2.272-2.65.379-4.165-1.514-1.515-1.894-.105-.011-1.217,1.522-3.692,1.42h-1.988l-.284,1.988-1.987,2.272H593.54L592.4,397.1l-.568,1.7-2.556.852-1.42,2.556-.567,2.272s-1.42,1.42-1.42,2.556,1.42,3.124,1.42,3.124v1.988L585.3,413h-2.272l-1.7.284-1.988-.568-1.42-1.7-2.271-1.42-1.42-1.988-2.556-.284-1.7.853-1.421,1.988-1.42,2.272-1.7-.852-1.42-1.419-2.555-.284-2.556,1.7-1.988.568-2.271.284-1.42,2.84,1.42,2.84.283,2.84-1.7.283-2.272-1.7-2.84-1.136-1.988,1.42-1.7,1.42-2.84.284-.285,1.7s1.136,1.136,1.136,1.988a11.5,11.5,0,0,0,.853,2.839l-.568,2.272-1.988-.284-1.136-1.7-1.7-.852-1.419,1.7-2.84,1.136s-1.42,1.135-.568,1.7,1.7.284,1.988,1.136,1.7,1.7,1.7,1.7l1.421,2.84v2.272a15.977,15.977,0,0,0-.568,2.84c0,.852.852,1.136.852,2.272s.568,3.407-.283,3.692l-.852.284v3.692l1.42,1.987-1.7,1.137-2.272,3.408a2.239,2.239,0,0,0-.568,2.556c.568,1.7,1.42,1.988,2.272,1.988h3.123c.852,0,2.839,1.421,2.839,1.421s3.692,1.419,4.544.851-.853-1.987.851-.567a16.6,16.6,0,0,1,3.124,3.976l-1.136,3.123-3.408.568s-2.271,0-2.271.852v5.4l-1.136,3.408-3.408,3.408-3.691,2.271-1.926-.159-.346,1.3,1.988,3.124.853,1.42.283,3.407-2.555,1.7s-.011.2-.632,1.048l3.756,4.349,1.7,1.42,2.272.851,1.988,2.272,5.679.569h2.272s.852-.569,1.136,1.135.852,1.988,1.42,3.407a8.712,8.712,0,0,0,1.7,2.556l2.84,1.42.852,2.84-.568,2.272-1.42,2.839-1.7,2.556,2.556,1.42H560.6c.853,0,4.544,0,5.4.568a32.414,32.414,0,0,0,4.26,1.7l2.272.568h2.839l-.284-2.84-1.42-1.42-.852-1.988-.284-1.988h1.135l1.988,1.42,1.419-1.136,1.137-1.42-.569-1.988-1.7-3.407,1.421-3.692,3.407-.568,1.987-1.136v-2.273l-1.987-1.135-3.975-.852-1.421-2.272L576.5,505l2.556-2.556,3.691-.568,1.42.852.284,2.84,2.556.285,1.136-2.272,1.137-2.556,3.124-2.556,3.975-2.272h5.679s2.84.283,3.408,1.136a14.409,14.409,0,0,1,1.136,3.123v2.272l-.852,1.989,1.42,2.27.568,1.7s0,1.42-2.272,1.42h-2.272l-.851,1.7v1.988a6.242,6.242,0,0,1-.285,2.272,18.921,18.921,0,0,1-.852,1.987,15.582,15.582,0,0,0-1.136,3.408c0,.852-.283,3.408-.283,3.408l-2.556,1.136-2.84-.283-1.419-3.125-3.123.285-2.273,1.136-1.42,2.84-.454,2,1.305,2.83,1.42,2.556,1.421,3.123,1.7,1.421,3.408-1.421,2.272.853s2.556-.568,3.124.283,3.408,1.42,3.408,1.42h4.259l3.124-1.135s1.42-1.7,2.272-1.7a13.58,13.58,0,0,0,3.408-1.42l1.988-1.419a4.238,4.238,0,0,1,2.271,0c1.7.284,5.111.852,5.964,1.419a2.823,2.823,0,0,0,.58.268l.84-1.12,2.272-.284a13.545,13.545,0,0,1,1.135-3.408,3.535,3.535,0,0,1,1.988-1.987l2.556-1.7a1.1,1.1,0,0,1,1.42,0l2.272.567,2.555.852c2.556.853,3.124.568,3.124.568l1.136,2.272s1.419,2.272,1.988,3.124a8.419,8.419,0,0,0,.852,1.136l2.84-.568,1.987-1.42,4.828.568,3.124,1.7,1.631.306,3.858-8.065,1.135-6.058.758-5.679.758-3.029,1.135-1.515,2.65-4.921,1.515-3.408.378-4.544Z" transform="translate(-389.364 -242.37)" fill="#cce7ff" stroke="#fff" stroke-width="1"/>
      <path id="패스_2382" data-name="패스 2382" d="M700.771,841.449l-4.165,2.651-5.3-.379-4.544,3.029a6.239,6.239,0,0,1-2.272,1.894,12.054,12.054,0,0,0-3.029,2.272l-3.785,3.407-3.787,2.272-.757,4.165v4.165l3.029,5.679,4.165,1.894,3.786-.379,1.515-2.65s3.786.378,4.922.378a35.026,35.026,0,0,1,8.33.379,98.815,98.815,0,0,0,10.979.757l3.786-1.136a23.156,23.156,0,0,1,5.3-1.137h6.436l4.921-2.272,3.408-2.271,1.894-3.03,2.649-1.893,1.137-4.922v-7.194l-3.786-5.679-8.708-3.408-2.272,1.136-6.437.757h-5.3l-4.165.757Z" transform="translate(-670.937 -397.042)" fill="#cce7ff" stroke="#fff" stroke-width="1"/>
      <path id="패스_2366" data-name="패스 2366" d="M571.213,145.912s2.65,7.194,2.65,9.466,2.651,5.3,2.651,5.3,3.787,9.087,3.787,10.6,1.892,5.3,1.892,5.3l2.273,7.573,1.135,8.33,3.786,3.786,4.165,4.165,2.65,5.679,4.921,8.33,7.573,10.223,4.543,5.68v4.543c0,1.136.379,1.893,1.136,4.544a8.566,8.566,0,0,0,1.513,3.407l1.894,2.65,1.136,3.408s2.65,3.029,3.408,4.165,3.786,5.3,3.786,5.3a32.12,32.12,0,0,0,2.652,5.679,10.916,10.916,0,0,1,1.513,4.165l4.544,7.194v3.408c0,1.136-.378,5.679,0,6.815.086.258.213.6.36.976l-3.769,1.675-4.542,1.135-2.272,3.029-1.893,3.408a13.957,13.957,0,0,1-3.408-1.514,5.809,5.809,0,0,1-2.272-3.786l-4.543-.379-3.03,1.893h-3.029s-2.65-.757-3.786-1.135l-2.272-.757-1.892.379-2.272,1.514-1.136,1.515-2.271-.757-.757-2.65-3.03-1.515h-1.514l-3.029,1.893-.379,2.272-2.65.379-4.165-1.514-1.515-1.894s-3.786-.378-4.923-1.136-3.028-2.272-3.028-2.272l-3.029-1.514-2.65.757s-3.407-.379-3.786-1.514a31.547,31.547,0,0,1-.757-3.786l-3.408-1.136-2.65,1.514H547.36l-1.515-.378v-2.272l1.893-1.514,2.651-.758,1.136-1.893s-2.651-1.136-3.787-1.514-4.923-2.272-4.923-2.272l-2.271,1.514H536c-2.651,0-2.272,1.893-3.407,1.893s-3.408,1.515-3.408,1.515l-2.272-1.515a20.42,20.42,0,0,0-.378-4.165,12.2,12.2,0,0,0-1.515-2.65l-2.65.379a16.169,16.169,0,0,0-4.544,3.408v3.028l-.757,1.894-1.893,1.136a50.616,50.616,0,0,1-8.707-.758c-3.408-.757-3.408-2.272-3.408-2.272a41.061,41.061,0,0,1-.379-4.922,14.932,14.932,0,0,1,1.515-5.3l1.514-4.544v-4.921l1.515-3.03,2.272-4.543-3.028-2.272.757-3.408,3.407-1.894,3.028-2.65-3.028-.379a36.98,36.98,0,0,1-7.194-3.028,8.574,8.574,0,0,1-2.65-2.272,18.988,18.988,0,0,1-2.272-3.029l-3.408-.379h-1.135c-1.136,0-2.271,1.514-2.271,1.514l-1.515-.757a7.737,7.737,0,0,1,.757-3.408,2.783,2.783,0,0,0,.379-2.272l.379-3.028-2.65-.379a7.47,7.47,0,0,1-.757-2.65,1.689,1.689,0,0,1,1.136-1.515l.757-2.65a13.428,13.428,0,0,1-.379-2.65c0-1.136,1.515-3.786,1.515-3.786l3.407-2.272,3.029-.757,1.515-3.786L497,194.756l-2.651-2.272-1.892-3.408s-1.893.379-6.437-2.272l-.757-4.922-.378-3.786-1.515-.757h-3.408l-1.515.757-3.029.757-2.65-1.136,1.514-3.786L475.8,170.9l-1.136-1.894-3.028,1.515-2.651,1.514-2.272-1.136-.757-3.786-2.271-4.543-4.165-1.515.728-3.4.03-.011,2.65-2.272,4.166-1.136H470.5l3.408-.379,2.65,2.272s1.894.379,1.894-.757,2.65-.757,2.65-.757h5.3l1.514,1.893,3.03,1.136,1.515.757,1.892-.757,3.408-1.515,1.514-.379,2.65,1.136h2.652l2.271.379,4.544-.379,2.65-1.136,1.893.757,1.515,2.65,1.893.757,1.136-2.65,2.271-.757,4.164,1.514,4.544,1.136,6.059,1.894,4.163-3.03,4.923-2.272,3.786-1.136,5.679-4.165,2.65-4.165s9.457-4.116,11.033-2.539S571.213,145.912,571.213,145.912Z" transform="translate(-359.183 -143.391)" fill="#cce7ff" stroke="#fff" stroke-width="1"/>
    </g>
  </g>
</svg>
